<svg width="29" height="29" viewBox="0 0 29 29" fill="none" xmlns="http://www.w3.org/2000/svg">
<path d="M0.359375 0.623047V28.6446H28.3809V15.8953V0.623047H0.359375Z" fill="#006FCF"/>
<path d="M24.9492 14.2097H27.0538V9.31324H24.8077V10.0961L24.3079 9.31324H22.3502V10.304L21.9079 9.31324H18.6755C18.5235 9.31295 18.3718 9.32448 18.2216 9.34774C18.0982 9.36831 17.9763 9.39788 17.8572 9.4362C17.7668 9.4652 17.6782 9.49946 17.5918 9.53882C17.4908 9.58523 17.3935 9.63935 17.3007 9.70071V9.31766H6.73826L6.45075 10.1713L6.15794 9.31766H3.69867V10.3138L3.25636 9.31324H1.25355L0.357422 11.408V14.2097H1.77283L2.03822 13.5073H2.53804L2.80343 14.2097H13.7286V13.4975L14.2762 14.2097H17.2945V13.8558C17.3718 13.9057 17.4525 13.95 17.536 13.9885C17.618 14.0263 17.7022 14.0591 17.7882 14.0867C17.8926 14.1209 17.9993 14.1475 18.1075 14.1663C18.2768 14.1967 18.4486 14.2118 18.6206 14.2114H20.427L20.6924 13.509H21.1931L21.4585 14.2114H24.4875V13.4852L24.9492 14.2097ZM28.3834 20.4905V15.8958H10.996L10.5537 16.523L10.1114 15.8958H5.11319V20.7922H10.0945L10.5289 20.1553L10.9765 20.7922H14.0948V19.7351H14.0621C14.421 19.7361 14.7773 19.6729 15.1139 19.5484V20.7869H17.2884V20.0792L17.8359 20.7869H27.2705C27.5274 20.7882 27.7825 20.7445 28.0242 20.6577C28.1493 20.6139 28.2696 20.5576 28.3834 20.4897V20.4905Z" fill="white"/>
<path d="M27.2891 19.3338H25.5959V19.9946H27.2617C27.9747 19.9946 28.3993 19.5603 28.3993 18.9428C28.3993 18.3527 28.0171 18.0086 27.3758 18.0086H26.6115C26.569 18.0116 26.5264 18.0054 26.4864 17.9907C26.4465 17.9759 26.4102 17.9529 26.3798 17.923C26.3494 17.8932 26.3258 17.8572 26.3103 17.8175C26.2949 17.7778 26.2881 17.7353 26.2903 17.6928C26.2873 17.6494 26.2935 17.6059 26.3084 17.565C26.3234 17.5242 26.3467 17.4869 26.377 17.4557C26.4073 17.4245 26.4439 17.4 26.4843 17.3838C26.5246 17.3677 26.568 17.3602 26.6115 17.362H28.049L28.3418 16.6923H26.6424C25.9303 16.6923 25.5057 17.1266 25.5057 17.7211C25.5057 18.3289 25.9073 18.6783 26.5345 18.6783H27.2935C27.3366 18.6753 27.3799 18.6816 27.4204 18.6966C27.461 18.7117 27.4979 18.7351 27.5286 18.7655C27.5594 18.7959 27.5834 18.8324 27.599 18.8727C27.6146 18.9131 27.6214 18.9562 27.619 18.9994C27.622 19.0437 27.6155 19.0881 27.6 19.1297C27.5845 19.1713 27.5604 19.2092 27.5292 19.2408C27.498 19.2724 27.4605 19.297 27.4191 19.313C27.3777 19.3291 27.3334 19.3361 27.2891 19.3338ZM24.1478 19.3338H22.4546V19.9946H24.1239C24.8369 19.9946 25.2615 19.5603 25.2615 18.9428C25.2615 18.3527 24.8794 18.0086 24.2371 18.0086H23.4728C23.4304 18.0114 23.3879 18.0052 23.348 17.9904C23.3082 17.9756 23.272 17.9525 23.2417 17.9227C23.2115 17.8928 23.1879 17.8569 23.1725 17.8173C23.1571 17.7777 23.1503 17.7352 23.1526 17.6928C23.1495 17.6495 23.1557 17.606 23.1706 17.5652C23.1855 17.5244 23.2088 17.4872 23.239 17.456C23.2692 17.4248 23.3056 17.4003 23.3459 17.3841C23.3862 17.3679 23.4294 17.3604 23.4728 17.362H24.9068L25.1996 16.6923H23.4967C22.7845 16.6923 22.3599 17.1266 22.3599 17.7211C22.3599 18.3289 22.7607 18.6783 23.3887 18.6783H24.1478C24.1909 18.6755 24.2341 18.6818 24.2745 18.6969C24.315 18.712 24.3518 18.7355 24.3826 18.7658C24.4133 18.7961 24.4373 18.8326 24.4529 18.8729C24.4686 18.9132 24.4755 18.9563 24.4733 18.9994C24.4762 19.0433 24.4698 19.0873 24.4546 19.1286C24.4394 19.1699 24.4156 19.2075 24.385 19.2391C24.3543 19.2706 24.3173 19.2953 24.2764 19.3116C24.2356 19.3279 24.1917 19.3355 24.1478 19.3338ZM21.9733 17.362V16.6923H19.3318V19.9946H21.9733V19.3294H20.1245V18.6641H21.9309V18.0033H20.1245V17.362H21.9733ZM17.5502 17.3673C17.8333 17.3673 17.9845 17.5504 17.9845 17.7777C17.9845 18.0051 17.8333 18.1829 17.5502 18.1829H16.6187V17.3673H17.5502ZM16.6204 18.8057H16.9938L17.9792 19.9946H18.9638L17.8642 18.7774C18.426 18.673 18.7604 18.2678 18.7604 17.7397C18.7604 17.1205 18.3181 16.6923 17.6192 16.6923H15.8269V19.9946H16.6231L16.6204 18.8057ZM14.6017 17.8007C14.6046 17.856 14.5956 17.9113 14.5753 17.9628C14.5549 18.0143 14.5238 18.0609 14.484 18.0994C14.4442 18.1379 14.3966 18.1673 14.3444 18.1859C14.2922 18.2044 14.2367 18.2115 14.1815 18.2068H13.2323V17.4H14.1798C14.4584 17.4 14.6 17.5769 14.6 17.8007H14.6017ZM12.4397 16.6923V19.9946H13.2359V18.9039H14.2311C14.9529 18.9039 15.4005 18.4324 15.4005 17.7954C15.4005 17.1399 14.9582 16.6914 14.2594 16.6914L12.4397 16.6923ZM11.2746 19.9946H12.2654L10.9385 18.3289L12.2557 16.6923H11.2932L10.482 17.7397L9.67522 16.6923H8.68443L10.0052 18.343L8.68886 19.9946H9.65133L10.4634 18.9331L11.2746 19.9946ZM8.52432 17.362V16.6923H5.88281V19.9946H8.52432V19.3294H6.67544V18.6641H8.48186V18.0033H6.67544V17.362H8.52432Z" fill="#006FCF"/>
<path d="M23.8505 11.4369L23.8408 11.1635L24.0062 11.4369L25.2703 13.4132H26.1948V10.1108H25.4216V12.0216L25.4305 12.2667L25.2845 12.0216L24.046 10.1108H23.0729V13.4132H23.8461L23.8505 11.4369ZM20.6897 11.3422L20.9303 10.723L21.171 11.3422L21.4638 12.0738H20.4022L20.6897 11.3422ZM22.0016 13.4132H22.8925L21.4824 10.1108H20.4394L19.024 13.4132H19.8679L20.1466 12.7055H21.7177L22.0016 13.4132ZM18.5436 13.4132H18.5861L18.9116 12.7108H18.671C18.1287 12.7108 17.8076 12.3711 17.8076 11.7863V11.7386C17.8076 11.2149 18.0951 10.8239 18.6613 10.8239H19.5202V10.1108H18.5923C17.5732 10.1108 17.0167 10.7955 17.0167 11.7341V11.7908C17.0203 12.7718 17.5909 13.4087 18.5436 13.4132ZM15.7278 13.4132H16.524V10.1108H15.7278V13.4132ZM14.0621 10.7858C14.3452 10.7858 14.4964 10.9698 14.4964 11.1963C14.4964 11.4227 14.3452 11.6023 14.0621 11.6023H13.1332V10.7858H14.0621ZM13.1332 12.2251H13.5056L14.492 13.4132H15.4775L14.3779 12.1959C14.9396 12.0924 15.2749 11.6864 15.2749 11.1582C15.2749 10.539 14.8326 10.1108 14.1329 10.1108H12.3406V13.4132H13.1368L13.1332 12.2251ZM11.7603 10.7814V10.1108H9.11877V13.4132H11.7603V12.7391H9.9114V12.0827H11.7178V11.4227H9.9114V10.7814H11.7603ZM5.18924 11.1582L5.16978 10.2674L6.08537 13.4132H6.80281L7.71752 10.286L7.69894 11.1538V13.4132H8.46768V10.1108H7.07085L6.44365 12.4507L5.81203 10.1108H4.4205V13.4132H5.18924V11.1582ZM2.03289 11.3422L2.27439 10.723L2.51412 11.3422L2.80694 12.0738H1.74538L2.03289 11.3422ZM3.34479 13.4132H4.2365L2.82109 10.1108H1.7843L0.368896 13.4132H1.21372L1.49149 12.7055H3.0626L3.34479 13.4132Z" fill="#006FCF"/>
</svg>
