<svg width="106" height="29" viewBox="0 0 106 29" fill="none" xmlns="http://www.w3.org/2000/svg">
<g clip-path="url(#clip0_1_207)">
<path fill-rule="evenodd" clip-rule="evenodd" d="M71.2667 6.60931H71.2185V6.41657H62.8743V9.10693H71.2667V6.60931ZM74.0614 6.41657V11.9579H62.9707V17.5796H60.2563V6.41657C60.2541 6.05491 60.3237 5.69641 60.4609 5.36178C60.598 5.02714 60.8001 4.72299 61.0555 4.46688C61.3109 4.21077 61.6144 4.00778 61.9487 3.86963C62.2829 3.73147 62.6412 3.66089 63.0028 3.66196H71.347C72.0719 3.66833 72.7647 3.96187 73.2735 4.47823C73.7824 4.99459 74.0657 5.69164 74.0614 6.41657ZM58.9713 17.8044C56.2408 24.454 50.7316 28.6141 45.9291 28.3008H45.6801C45.6211 28.2613 45.5499 28.2442 45.4794 28.2527H45.4312C44.9379 28.1639 44.454 28.0294 43.9856 27.8511C38.8378 25.8514 37.1914 18.1096 40.3396 10.5605C43.0379 3.96713 48.5311 -0.297287 53.3818 0.0159195H53.6307C53.6898 0.0554641 53.761 0.0725567 53.8315 0.0641031H53.8797C54.3572 0.153115 54.8252 0.287575 55.2771 0.465649L54.3776 2.66613C50.0811 1.05994 44.4835 4.7622 41.8333 11.0584C39.1831 17.3547 40.5323 23.8517 44.8851 25.6025C49.2378 27.3532 54.8755 23.5546 57.4776 17.2583V17.2101L58.9713 17.8044ZM51.6792 14.8571V14.9053C50.9324 16.5114 49.4788 17.5073 48.3785 17.0575C47.2783 16.6078 46.8848 14.9053 47.5754 13.3071C48.2661 11.709 49.7759 10.7131 50.8681 11.1628C50.8681 11.211 50.9243 11.211 50.9243 11.211C51.9764 11.6608 52.2816 13.3071 51.6792 14.8571ZM52.5787 15.2104C53.4782 13.01 53.0284 10.6569 51.6311 9.91002H51.5829C51.5829 9.86184 51.5266 9.86184 51.5266 9.86184H51.4222C49.8161 9.25952 47.6718 10.6649 46.7241 13.01C45.7765 15.355 46.2262 17.6599 47.6718 18.3586C47.6718 18.3713 47.6769 18.3836 47.6859 18.3926C47.6949 18.4017 47.7072 18.4067 47.72 18.4067C47.7762 18.4549 47.7762 18.4549 47.8244 18.4549C49.4306 19.0572 51.5748 17.6518 52.5225 15.3068C52.5787 15.2586 52.5787 15.2586 52.5787 15.2104ZM52.129 8.15928C53.43 8.6572 54.1769 9.95821 54.3776 11.5564V11.8615C54.4722 13.1774 54.2491 14.4967 53.7271 15.7084C53.7208 15.7084 53.7145 15.7096 53.7087 15.712C53.7028 15.7144 53.6975 15.718 53.693 15.7225C53.6886 15.7269 53.685 15.7323 53.6826 15.7381C53.6802 15.7439 53.6789 15.7502 53.6789 15.7565C52.5787 18.3586 50.5308 20.1575 48.6275 20.3583C48.1048 20.4186 47.5753 20.3497 47.0855 20.1575C46.4764 19.8526 45.9548 19.3978 45.5699 18.8359C45.1849 18.2739 44.9493 17.6232 44.8851 16.9451C44.8467 16.8886 44.8297 16.8203 44.8369 16.7524V16.4954C44.7796 15.1458 45.0181 13.8 45.5356 12.5522C46.684 9.7494 48.9808 7.90229 51.0287 7.95047C51.4058 7.94513 51.7801 8.01616 52.129 8.15928ZM55.2289 16.3107L55.1807 16.2545L56.4737 16.7604V16.8086C54.3294 21.852 50.1293 25.0001 46.4832 24.454H46.3788C46.297 24.4326 46.2138 24.4165 46.1299 24.4058C46.0335 24.4058 45.9853 24.3496 45.8809 24.3496C45.7765 24.3496 45.8327 24.3014 45.7845 24.3014C45.6617 24.292 45.5418 24.2593 45.4312 24.2051C41.6888 22.7515 40.4841 16.9772 42.781 11.46C45.0296 6.06321 49.7277 2.81871 53.4782 3.96713C53.5263 3.96713 53.5263 4.01532 53.5745 4.01532C53.6227 4.01532 53.7271 4.06351 53.8315 4.11169L53.0766 6.01502C49.9767 4.81038 45.9291 7.46059 44.082 12.0061C42.2349 16.5516 43.1343 21.1051 46.2343 22.3017C49.3342 23.4984 53.3818 20.8562 55.2289 16.3107ZM37.4886 9.46029L38.4362 7.11526H27.0966L26.1409 9.46029H30.5418L25.7955 21.2577H28.3414L33.0876 9.46029H37.4886ZM33.2884 24.7191V24.7672H17.9493L26.5264 3.56559H41.7851L33.2884 24.7191ZM20.8485 7.05101H18.0537L11.0508 17.6438V7.11526H8.70573V21.2015H11.5005L20.8485 7.05101ZM15.4035 24.7191H0.0644531L8.60936 3.5174H23.9484L15.4035 24.7191ZM85.1521 17.4591H76.8642C76.5025 17.4602 76.1443 17.3896 75.81 17.2514C75.4758 17.1133 75.1722 16.9103 74.9169 16.6542C74.6615 16.3981 74.4594 16.0939 74.3222 15.7593C74.1851 15.4246 74.1155 15.0661 74.1176 14.7045V11.9579L76.8642 9.21133V14.7607H85.2084V6.41657H76.9124C76.9114 6.05521 76.9816 5.69719 77.1192 5.36303C77.2567 5.02887 77.4589 4.72515 77.714 4.46925C77.9692 4.21336 78.2723 4.01033 78.6061 3.8718C78.9398 3.73327 79.2976 3.66196 79.659 3.66196H85.2084C85.57 3.66089 85.9283 3.73147 86.2625 3.86963C86.5968 4.00778 86.9003 4.21077 87.1557 4.46688C87.4111 4.72299 87.6132 5.02714 87.7503 5.36178C87.8875 5.69641 87.9571 6.05491 87.9549 6.41657V14.7045C87.9572 15.4233 87.6776 16.1144 87.1761 16.6294C86.6746 17.1444 85.9912 17.4423 85.2726 17.4591C87.0671 17.4381 88.7877 16.7412 90.0912 15.5076L95.0864 10.5123L90.1394 5.56529C88.8075 4.26438 87.0138 3.54517 85.1521 3.56559H91.9945L97.0058 8.53673L102.017 3.56559H106.033L92.139 17.4591H85.1521Z" fill="#0E62AF"/>
</g>
<defs>
<clipPath id="clip0_1_207">
<rect width="105.936" height="28.3251" fill="white" transform="translate(0.0644531)"/>
</clipPath>
</defs>
</svg>
