<svg width="92" height="30" viewBox="0 0 92 30" fill="none" xmlns="http://www.w3.org/2000/svg">
<path fill-rule="evenodd" clip-rule="evenodd" d="M32.5527 28.8221L37.1298 0.505371H44.4496L39.8725 28.8221H32.5527Z" fill="#0058A0"/>
<path fill-rule="evenodd" clip-rule="evenodd" d="M66.4148 1.20322C64.3199 0.395348 62.0921 -0.0126702 59.8469 0.000299765C52.6294 0.000299765 47.523 3.85566 47.4929 9.37104C47.4328 13.4369 51.1378 15.6924 53.9105 17.0517C56.6832 18.411 57.7057 19.3372 57.7057 20.5762C57.6756 22.4708 55.4201 23.3429 53.309 23.3429C50.9312 23.4086 48.5733 22.8924 46.4404 21.8393L45.478 21.3882L44.4375 27.7276C47.0397 28.7361 49.8085 29.2462 52.5993 29.2312C60.2799 29.2312 65.2781 25.436 65.3442 19.5598C65.3442 16.3419 63.4135 13.8699 59.1973 11.849C56.6351 10.5559 55.0713 9.6838 55.0713 8.35457C55.1014 7.15165 56.3945 5.91865 59.2815 5.91865C61.1563 5.86448 63.019 6.23458 64.7307 7.00129L65.3923 7.30202L66.3908 1.19119L66.4148 1.20322Z" fill="#0058A0"/>
<path fill-rule="evenodd" clip-rule="evenodd" d="M76.1404 18.7897C76.7418 17.1658 79.0635 10.8685 79.0635 10.8685C79.0635 10.8685 79.6649 9.2145 80.0318 8.15593L80.5431 10.5979C80.5431 10.5979 81.9264 17.3763 82.2271 18.7897H76.1404ZM85.1623 0.505371H79.4965C77.7523 0.505371 76.4231 1.02263 75.6712 2.85708L64.7969 28.8221H72.4775L74.0172 24.5758H83.418C83.6285 25.5682 84.2902 28.8221 84.2902 28.8221H91.0686L85.1623 0.505371Z" fill="#0058A0"/>
<path fill-rule="evenodd" clip-rule="evenodd" d="M26.4413 0.505127L19.2659 19.812L18.484 15.8965C17.1608 11.3795 13.0047 6.47161 8.36148 4.02969L14.9294 28.7917H22.6702L34.1821 0.52317L26.4413 0.505127Z" fill="#0058A0"/>
<path fill-rule="evenodd" clip-rule="evenodd" d="M12.6138 0.506467H0.831237L0.710938 1.10793C9.90123 3.45362 15.988 9.11936 18.4841 15.9219L15.9279 2.88826C15.5008 1.08388 14.2077 0.566626 12.6138 0.482422V0.506467Z" fill="#FAA61A"/>
</svg>
