<svg width="39" height="31" viewBox="0 0 39 31" fill="none" xmlns="http://www.w3.org/2000/svg">
<path d="M7.04026 29.9301V27.937C7.04026 27.187 6.56185 26.687 5.79026 26.6756C5.57041 26.6617 5.35086 26.707 5.15456 26.807C4.95825 26.9069 4.7924 27.0578 4.67435 27.2438C4.56679 27.0632 4.41243 26.9151 4.2276 26.8151C4.04277 26.7151 3.83434 26.6669 3.62436 26.6756C3.44174 26.6663 3.25985 26.7049 3.09678 26.7876C2.93371 26.8703 2.79513 26.9943 2.69481 27.1472V26.7551H2.00391V29.9301H2.70163V28.1699C2.70163 27.6188 3.00731 27.3256 3.4789 27.3256C3.95049 27.3256 4.16981 27.6256 4.16981 28.1631V29.9301H4.8664V28.1699C4.8664 27.6188 5.18572 27.3256 5.64481 27.3256C6.1039 27.3256 6.3414 27.6256 6.3414 28.1631V29.9301H7.04026ZM17.363 26.7551H16.2334V25.7915H15.5368V26.7551H14.8914V27.3858H15.5368V28.8336C15.5368 29.5711 15.8221 30.0097 16.638 30.0097C16.9432 30.0108 17.2426 29.9257 17.5016 29.7642L17.3039 29.1722C17.1187 29.2832 16.9083 29.345 16.6925 29.3517C16.3516 29.3517 16.238 29.1392 16.238 28.8211V27.3858H17.3675L17.363 26.7551ZM23.255 26.6756C23.0865 26.6707 22.9199 26.7113 22.7725 26.7931C22.6251 26.8749 22.5025 26.9949 22.4175 27.1404V26.7551H21.7357V29.9301H22.4266V28.1506C22.4266 27.6256 22.6539 27.3336 23.1084 27.3336C23.2565 27.3313 23.4037 27.3583 23.5414 27.4131L23.7539 26.762C23.596 26.7053 23.4296 26.6761 23.2618 26.6756M14.3493 27.0074C13.9583 26.7748 13.5086 26.6596 13.0539 26.6756C12.2505 26.6756 11.7323 27.0608 11.7323 27.6915C11.7323 28.2097 12.1175 28.529 12.8277 28.629L13.1539 28.6745C13.5323 28.7279 13.7118 28.8267 13.7118 29.0063C13.7118 29.2517 13.4596 29.3926 12.988 29.3926C12.6083 29.4033 12.2361 29.2861 11.9312 29.0597L11.6039 29.596C12.0064 29.8767 12.4883 30.0209 12.9789 30.0074C13.8948 30.0074 14.4266 29.5767 14.4266 28.9722C14.4266 28.4131 14.0084 28.1211 13.3175 28.0222L12.9914 27.9745C12.6937 27.9347 12.4539 27.8756 12.4539 27.6631C12.4539 27.4301 12.6812 27.2904 13.0584 27.2904C13.4062 27.2957 13.7468 27.3895 14.0482 27.5631L14.3493 27.0074ZM32.855 26.6756C32.6867 26.6708 32.5202 26.7115 32.373 26.7933C32.2259 26.875 32.1034 26.9949 32.0186 27.1404V26.7551H31.3368V29.9301H32.0277V28.1506C32.0277 27.6256 32.255 27.3336 32.7095 27.3336C32.8573 27.3313 33.0041 27.3583 33.1413 27.4131L33.3538 26.762C33.196 26.7052 33.0295 26.676 32.8618 26.6756M23.9527 28.3461C23.9527 29.3086 24.6232 30.0131 25.6459 30.0131C26.0586 30.033 26.4639 29.898 26.7823 29.6347L26.4516 29.0767C26.2126 29.2588 25.9213 29.3589 25.6209 29.362C25.0686 29.3551 24.6641 28.9574 24.6641 28.3461C24.6641 27.7347 25.0686 27.337 25.6209 27.3233C25.9214 27.3268 26.2127 27.4273 26.4516 27.6097L26.7823 27.0517C26.4636 26.7889 26.0585 26.654 25.6459 26.6733C24.6232 26.6733 23.9527 27.3767 23.9527 28.3404M30.422 28.3404V26.7551H29.7311V27.1404C29.6134 26.9884 29.4609 26.8669 29.2865 26.786C29.1121 26.7052 28.9209 26.6673 28.7288 26.6756C27.8379 26.6756 27.1379 27.3733 27.1379 28.3426C27.1379 29.312 27.8345 30.0097 28.7288 30.0097C28.9209 30.0178 29.112 29.9798 29.2864 29.899C29.4608 29.8181 29.6132 29.6967 29.7311 29.5449V29.9301H30.422V28.3404ZM27.8516 28.3404C27.8516 27.7824 28.2163 27.3176 28.8152 27.3176C29.3834 27.3176 29.7709 27.7563 29.7709 28.3404C29.7709 28.9245 29.3857 29.3563 28.8152 29.3563C28.2163 29.3563 27.8516 28.9017 27.8516 28.3404ZM19.5152 26.6756C18.5845 26.6756 17.9346 27.3574 17.9346 28.3426C17.9346 29.3517 18.6164 30.0097 19.5618 30.0097C20.0359 30.0261 20.4994 29.8676 20.8641 29.5642L20.5232 29.054C20.2605 29.2638 19.9355 29.3802 19.5993 29.3847C19.1539 29.3847 18.7493 29.1801 18.6493 28.6086H21.0073C21.0141 28.5222 21.0209 28.4347 21.0209 28.3426C21.0141 27.3529 20.4027 26.6756 19.513 26.6756M19.4993 27.2926C19.9448 27.2926 20.23 27.5722 20.3027 28.0631H18.6584C18.7311 27.6086 19.0095 27.2926 19.5016 27.2926M36.8322 28.3461V25.4824H36.1413V27.1438C36.0245 26.992 35.8731 26.8703 35.6998 26.7889C35.5264 26.7075 35.3361 26.6686 35.1447 26.6756C34.2538 26.6756 33.5538 27.3733 33.5538 28.3426C33.5538 29.312 34.2516 30.0097 35.1447 30.0097C35.3368 30.0178 35.5279 29.9798 35.7023 29.899C35.8767 29.8181 36.0291 29.6967 36.147 29.5449V29.9301H36.8379L36.8322 28.3461ZM34.2618 28.3461C34.2618 27.7881 34.6266 27.3233 35.2243 27.3233C35.7925 27.3233 36.1811 27.762 36.1811 28.3461C36.1811 28.9301 35.7959 29.362 35.2243 29.362C34.6266 29.362 34.2618 28.9074 34.2618 28.3461ZM10.9323 28.3461V26.7551H10.2425V27.1404C10.1242 26.9879 9.97099 26.8661 9.79578 26.7852C9.62057 26.7044 9.42848 26.6668 9.23571 26.6756C8.3448 26.6756 7.6448 27.3733 7.6448 28.3426C7.6448 29.312 8.34139 30.0097 9.23571 30.0097C9.42789 30.0178 9.61923 29.9798 9.79378 29.899C9.96832 29.8181 10.121 29.6967 10.2391 29.5449V29.9301H10.9289L10.9323 28.3461ZM8.36298 28.3461C8.36298 27.7881 8.72775 27.3233 9.32548 27.3233C9.89366 27.3233 10.2812 27.762 10.2812 28.3461C10.2812 28.9301 9.89707 29.362 9.32548 29.362C8.72775 29.362 8.36298 28.9074 8.36298 28.3461ZM37.9856 29.4699C38.029 29.4695 38.0719 29.478 38.1118 29.4949C38.1496 29.5103 38.184 29.5331 38.2129 29.562C38.2424 29.5908 38.266 29.6252 38.2822 29.6631C38.2986 29.702 38.307 29.7437 38.3072 29.7858C38.3072 29.8276 38.2987 29.869 38.2822 29.9074C38.266 29.9453 38.2424 29.9797 38.2129 30.0085C38.1837 30.0374 38.1494 30.0605 38.1118 30.0767C38.0303 30.1085 37.9398 30.1085 37.8584 30.0767C37.8205 30.0602 37.7859 30.0371 37.7561 30.0085C37.7273 29.9794 37.7042 29.9451 37.6879 29.9074C37.6715 29.869 37.663 29.8276 37.6629 29.7858C37.6631 29.7437 37.6716 29.702 37.6879 29.6631C37.7042 29.6254 37.7273 29.5912 37.7561 29.562C37.7857 29.5334 37.8204 29.5106 37.8584 29.4949C37.8986 29.4779 37.9419 29.4694 37.9856 29.4699ZM37.9856 30.0313C38.0185 30.0318 38.051 30.0252 38.0811 30.012C38.11 29.9998 38.1363 29.982 38.1584 29.9597C38.1811 29.9375 38.1989 29.9108 38.2106 29.8813C38.2234 29.8511 38.23 29.8186 38.23 29.7858C38.2299 29.7527 38.2234 29.7198 38.2106 29.6892C38.1987 29.6601 38.1809 29.6338 38.1584 29.612C38.1363 29.5896 38.11 29.5719 38.0811 29.5597C38.0509 29.5469 38.0184 29.5403 37.9856 29.5404C37.9525 29.5403 37.9196 29.5469 37.889 29.5597C37.8595 29.5714 37.8328 29.5892 37.8106 29.612C37.7881 29.6338 37.7703 29.6601 37.7584 29.6892C37.7456 29.7198 37.7391 29.7527 37.739 29.7858C37.739 29.8186 37.7456 29.8511 37.7584 29.8813C37.7772 29.9259 37.8089 29.964 37.8493 29.9907C37.8897 30.0174 37.9372 30.0315 37.9856 30.0313ZM38.005 29.6381C38.0361 29.6362 38.067 29.645 38.0925 29.6631C38.1021 29.6715 38.1098 29.682 38.1149 29.6938C38.12 29.7056 38.1225 29.7184 38.122 29.7313C38.1223 29.7424 38.1204 29.7535 38.1163 29.7639C38.1122 29.7742 38.106 29.7836 38.0981 29.7915C38.0789 29.8085 38.0545 29.8186 38.0288 29.8199L38.1243 29.9335H38.0493L37.9606 29.8199H37.9322V29.9335H37.872V29.6404L38.005 29.6381ZM37.9322 29.6926V29.7711H38.0038C38.0176 29.7714 38.0313 29.7683 38.0436 29.762C38.0485 29.7586 38.0525 29.754 38.0551 29.7486C38.0577 29.7432 38.0588 29.7372 38.0584 29.7313C38.0587 29.7255 38.0575 29.7197 38.055 29.7145C38.0524 29.7093 38.0484 29.7049 38.0436 29.7017C38.0313 29.6954 38.0176 29.6923 38.0038 29.6926H37.9322Z" fill="#010101"/>
<path d="M24.5828 2.55713H14.1191V21.3605H24.5828V2.55713Z" fill="#F26522"/>
<path d="M14.7831 11.9585C14.7815 10.1477 15.1919 8.36035 15.9832 6.73161C16.7744 5.10287 17.9258 3.67545 19.3501 2.55739C17.5859 1.17051 15.4672 0.307969 13.2359 0.0683696C11.0047 -0.17123 8.75113 0.221776 6.73272 1.20246C4.71432 2.18315 3.01256 3.71195 1.82197 5.61411C0.63138 7.51626 0 9.71503 0 11.9591C0 14.2031 0.63138 16.4019 1.82197 18.304C3.01256 20.2062 4.71432 21.735 6.73272 22.7157C8.75113 23.6964 11.0047 24.0894 13.2359 23.8498C15.4672 23.6102 17.5859 22.7476 19.3501 21.3607C17.9257 20.2425 16.7744 18.8148 15.9831 17.1859C15.1919 15.557 14.7815 13.7694 14.7831 11.9585Z" fill="#E51B24"/>
<path d="M38.6973 11.9574C38.6979 14.2014 38.067 16.4003 36.8768 18.3027C35.6865 20.2051 33.985 21.7341 31.9666 22.7149C29.9483 23.6957 27.6947 24.0888 25.4635 23.8491C23.2323 23.6095 21.1136 22.7467 19.3496 21.3596C20.7725 20.2402 21.9228 18.8124 22.7137 17.1838C23.5046 15.5553 23.9155 13.7684 23.9155 11.958C23.9155 10.1475 23.5046 8.36065 22.7137 6.73208C21.9228 5.10351 20.7725 3.67571 19.3496 2.55628C21.1136 1.17002 23.2321 0.307992 25.4628 0.0687034C27.6936 -0.170586 29.9467 0.222518 31.9646 1.20309C33.9825 2.18366 35.6839 3.71215 36.8742 5.61387C38.0646 7.51559 38.696 9.71384 38.6962 11.9574M37.5598 19.3687V18.9835H37.7155V18.9051H37.32V18.9835H37.4746V19.3687H37.5598ZM38.328 19.3687V18.9051H38.2064L38.0677 19.2233L37.928 18.9051H37.8064V19.3687H37.8916V19.0187L38.0223 19.3199H38.1109L38.2416 19.0176V19.3687H38.328Z" fill="#F99F1C"/>
</svg>
