<svg width="277" height="80" viewBox="0 0 277 80" fill="none" xmlns="http://www.w3.org/2000/svg">
<path d="M29.9112 74.1208C29.124 73.1253 28.3971 72.0835 27.7343 71.0012C28.2548 71.1649 28.7851 71.3286 29.3154 71.4628C29.4869 72.1198 29.6978 72.7658 29.9472 73.3974C30.0019 73.5646 30.0403 73.7367 30.0617 73.9113C30.0617 73.9441 30.0126 73.9833 29.9112 74.1208Z" fill="#23418F"/>
<path d="M64.1474 59.7373C62.7446 62.005 61.0981 64.1126 59.2372 66.0223C54.783 70.6255 49.5514 74.4064 43.7832 77.1914C42.536 77.8035 41.2626 78.3666 39.9565 78.8936C38.9483 79.2995 37.8943 79.5679 36.8467 79.8756C36.5891 79.9274 36.3272 79.9548 36.0644 79.9575H36.0447H35.8418C36.1299 79.126 36.4245 78.3207 36.7289 77.5024C37.3452 75.8171 38.0511 74.166 38.8436 72.5562C43.7447 72.4131 48.5538 71.19 52.9278 68.9741C57.3018 66.7583 61.1328 63.6043 64.1474 59.7373Z" fill="#23418F"/>
<path d="M64.1482 59.7373C62.7455 62.005 61.099 64.1126 59.2381 66.0223C54.7839 70.6255 49.5523 74.4064 43.7841 77.1914C42.5369 77.8035 41.2635 78.3666 39.9574 78.8936C38.9492 79.2995 37.8951 79.5679 36.8476 79.8756C36.59 79.9274 36.328 79.9548 36.0653 79.9575H36.0456H35.8296C35.8275 79.95 35.8275 79.942 35.8296 79.9345C36.1176 79.1031 36.4123 78.2978 36.7167 77.4794C37.3329 75.7942 38.0388 74.1431 38.8313 72.5333C43.7329 72.3948 48.5434 71.1762 52.9196 68.9643C57.2959 66.7524 61.13 63.6018 64.1482 59.7373Z" fill="#23418F"/>
<path d="M31.6592 79.4796C24.0667 78.1854 17.0704 74.5451 11.6532 69.0702C6.23602 63.5952 2.67015 56.5608 1.45658 48.955C0.243003 41.3492 1.4427 33.5543 4.88712 26.6654C8.33154 19.7765 13.8476 14.1398 20.6604 10.5471C15.4752 13.66 11.2329 18.1227 8.38643 23.4587C5.53996 28.7948 4.19623 34.8037 4.49873 40.8439C4.80122 46.8841 6.73859 52.7288 10.1039 57.7537C13.4693 62.7786 18.1363 66.7952 23.6065 69.3744C24.5521 71.326 25.7221 73.1606 27.0927 74.8411C28.4021 76.4483 30.0028 77.8166 31.6592 79.4796Z" fill="#23418F"/>
<path d="M46.1172 33.4712C43.5213 37.6055 40.5065 41.4813 37.7338 45.5109C34.5488 50.1396 31.6157 54.9123 29.9005 60.3168C28.7187 64.0321 28.339 67.7508 29.3145 71.4629C29.486 72.1199 29.6969 72.7659 29.9463 73.3975C30.001 73.5647 30.0394 73.7368 30.0609 73.9114C30.0609 73.9442 30.0117 73.9835 29.9103 74.1209C29.1231 73.1254 28.3962 72.0836 27.7334 71.0013C25.6188 67.5085 24.3978 63.7212 24.6171 59.4166C24.9019 53.796 26.9773 48.7385 29.7793 43.9986C32.3981 39.5991 35.2886 35.3796 38.0677 31.0848C41.4656 25.8473 44.1105 20.2824 44.8569 13.9974C45.05 12.377 45.0238 10.7239 45.1089 8.82202C47.9503 11.7027 49.5117 14.9499 49.9242 18.7471C50.5036 24.1287 48.8996 29.0193 46.1172 33.4712Z" fill="#23418F"/>
<path d="M31.6657 79.4828H31.6428C28.7537 78.7431 26.0385 77.4417 23.6523 75.6528C19.6396 72.6877 16.6877 68.51 15.233 63.7374C14.5224 61.4228 14.0916 59.0315 13.9498 56.6144C13.6486 52.0512 13.5701 47.4487 12.8663 42.951C12.2508 38.977 10.4603 35.3926 6.74817 33.1306C8.27687 32.8655 11.0822 33.6478 13.0823 34.9245C17.4949 37.7233 19.351 42.0606 19.8878 47.0003C20.2675 50.421 20.1399 53.8974 20.4443 57.3313C20.824 61.5868 21.7897 65.6491 23.5966 69.3743C24.5423 71.3259 25.7122 73.1605 27.0829 74.841C28.3923 76.4483 30.0028 77.8166 31.6657 79.4795V79.4828Z" fill="#23418F"/>
<path d="M74.6926 43.154C74.6917 52.9265 70.809 62.2984 63.8985 69.2083C56.988 76.1182 47.6157 80 37.8433 80C37.2475 80 36.6517 80 36.0625 79.9575C36.3253 79.9548 36.5872 79.9274 36.8449 79.8757C37.8924 79.5647 38.9464 79.2962 39.9546 78.8936C41.264 78.3666 42.5341 77.8036 43.7813 77.1914C49.5495 74.4065 54.7811 70.6255 59.2353 66.0224C61.0962 64.1126 62.7427 62.0051 64.1455 59.7373C61.1288 63.6038 57.2959 66.7566 52.9201 68.9708C48.5444 71.185 43.7339 72.4059 38.8318 72.5464C39.7425 70.6825 40.858 68.9258 42.1577 67.3088C43.1545 66.0356 44.4271 65.005 45.8798 64.2946C47.3324 63.5841 48.9272 63.2123 50.5443 63.2072C52.2563 63.1614 53.9781 63.2072 55.6672 62.9748C59.0945 62.5034 60.4923 60.4542 59.8802 57.0498C59.802 56.4854 59.6626 55.9311 59.4644 55.3967C58.5773 53.269 58.6952 51.3802 60.5512 49.7599C61.5333 48.912 61.3238 48.0446 60.3221 47.3146L58.9767 46.3325C59.7525 45.9561 60.3646 45.6778 60.9768 45.3734C62.4171 44.6762 62.6397 43.8644 61.7591 42.519C59.4939 39.0917 59.5168 38.9738 62.8426 36.5678C62.8857 36.541 62.9262 36.5103 62.9638 36.4762C63.9131 35.6349 65.3468 34.9998 65.0522 33.4548C64.7576 31.9097 63.2322 31.8541 62.0537 31.3499C59.9409 30.5042 57.8862 29.52 55.9029 28.4038C54.8096 27.7491 54.0141 26.61 53.0648 25.6738C54.4168 24.1189 55.3563 23.2219 56.0306 21.1957C54.7801 21.9093 52.492 23.4675 52.3316 23.3627C53.0337 19.6868 53.0426 15.9121 52.3578 12.233C52.178 11.211 51.9364 10.2009 51.6343 9.20828C51.595 9.08716 51.559 8.96277 51.5099 8.83838C51.6703 8.90385 52.0828 9.07079 52.6884 9.35558C54.542 10.2223 56.3268 11.2291 58.0274 12.3672L58.1387 12.4424C58.4071 12.6192 58.6854 12.8091 58.9636 13.0055L59.3335 13.2739L59.4284 13.3361C59.6805 13.5194 59.9391 13.7093 60.1846 13.8991C60.7705 14.3443 61.3369 14.8059 61.8966 15.2936C65.9111 18.7412 69.1329 23.0157 71.3415 27.8244C73.5501 32.6331 74.6932 37.8624 74.6926 43.154Z" fill="#23418F"/>
<path d="M61.9054 15.2348C61.9072 15.2434 61.9072 15.2523 61.9054 15.261C61.3456 14.7732 60.7793 14.3116 60.1934 13.8665C60.7673 14.292 61.338 14.7481 61.9054 15.2348Z" fill="#23418F"/>
<path d="M21.8887 6.69092H40.04C40.8213 6.69092 41.5707 7.00131 42.1232 7.55381C42.6757 8.10632 42.9861 8.85567 42.9861 9.63703V14.4032H24.8381C24.0567 14.4032 23.3073 14.0928 22.7548 13.5403C22.2023 12.9878 21.8919 12.2384 21.8919 11.4571V6.69092H21.8887Z" fill="#23418F"/>
<path d="M28.5822 21.0974V2.9461C28.5822 2.16474 28.8925 1.41538 29.445 0.862881C29.9975 0.310377 30.7469 -1.33514e-05 31.5283 -1.33514e-05H36.2977V18.1513C36.2977 18.9327 35.9873 19.682 35.4348 20.2345C34.8823 20.787 34.1329 21.0974 33.3516 21.0974H28.5822Z" fill="#23418F"/>
<path d="M94.7398 17.0742C98.9069 17.0742 102.409 20.2691 101.323 25.523C100.305 30.4692 96.5336 32.9308 91.7675 32.9308C91.0622 32.9216 90.3582 32.8691 89.6594 32.7737C89.0047 32.7082 88.4417 32.6624 87.8852 32.6624C87.4689 32.6567 87.0531 32.694 86.6445 32.7737L86.71 32.4202C88.7723 31.9783 91.5449 17.9613 89.7936 17.6078L89.8591 17.2543C90.3857 17.3545 90.9204 17.406 91.4565 17.4081C91.9701 17.4106 92.4825 17.359 92.9852 17.2543C93.5614 17.128 94.15 17.0676 94.7398 17.0742ZM94.7594 17.4965C94.119 17.5095 93.4844 17.6198 92.8772 17.8238L89.7936 32.1714C90.4023 32.3275 91.0278 32.4089 91.6562 32.4136C95.0933 32.4136 98.3537 29.9978 99.3292 25.2513C100.393 20.0923 97.8659 17.5096 94.7594 17.5096V17.4965Z" fill="#23418F"/>
<path d="M112.256 22.6622L111.228 24.7114H111.006C110.806 22.2268 110.053 21.2743 109.166 21.2743C107.834 21.2743 106.24 23.4249 105.893 25.7523C105.362 29.0258 105.074 32.2502 105.85 32.4269L105.781 32.7805C105.066 32.6396 104.337 32.5727 103.608 32.5808C102.839 32.5737 102.072 32.6406 101.316 32.7805L101.382 32.4269C103.202 32.0505 105.484 22.6262 103.673 22.2792L103.716 21.9879C104.76 21.9879 106.047 21.3692 106.511 20.5934H106.822C106.665 21.3921 106.466 22.3872 106.266 23.474C107.022 21.9453 108.23 20.325 109.971 20.325C110.276 20.3258 110.577 20.3872 110.857 20.5056C111.137 20.624 111.391 20.797 111.604 21.0145C111.817 21.2321 111.984 21.4899 112.096 21.7728C112.208 22.0556 112.262 22.358 112.256 22.6622Z" fill="#23418F"/>
<path d="M111.815 31.4678C111.815 31.2089 111.891 30.9557 112.035 30.7404C112.179 30.5251 112.384 30.3572 112.623 30.2581C112.862 30.159 113.125 30.1331 113.379 30.1836C113.633 30.2341 113.867 30.3588 114.05 30.542C114.233 30.7251 114.358 30.9584 114.408 31.2124C114.459 31.4664 114.433 31.7296 114.334 31.9689C114.235 32.2082 114.067 32.4127 113.851 32.5565C113.636 32.7004 113.383 32.7772 113.124 32.7772C112.951 32.7794 112.78 32.747 112.62 32.682C112.46 32.617 112.315 32.5206 112.193 32.3986C112.071 32.2766 111.975 32.1314 111.91 31.9715C111.845 31.8116 111.812 31.6404 111.815 31.4678Z" fill="#23418F"/>
<path d="M136.009 17.0088C137.518 17.0088 138.759 17.3623 138.759 18.2069C138.697 18.7298 138.601 19.2481 138.471 19.7585H138.248C137.427 17.9843 134.788 17.3623 133.571 17.6078C131.508 18.0497 128.736 32.0438 130.487 32.4202L130.421 32.7738C129.707 32.6311 128.98 32.562 128.251 32.5675C127.483 32.5607 126.715 32.6275 125.96 32.7672L126.028 32.4137C128.091 31.9718 130.86 17.9548 129.109 17.6013C127.891 17.3558 125.361 18.256 123.943 20.04H123.721C123.799 19.368 123.917 18.7013 124.074 18.0432C124.32 17.3132 125.384 17.0252 126.781 17.0252C127.585 17.0379 128.386 17.1123 129.178 17.2478C129.915 17.3884 130.665 17.4553 131.417 17.4474C132.16 17.4617 132.903 17.3947 133.633 17.2478C134.415 17.0904 135.211 17.0103 136.009 17.0088Z" fill="#23418F"/>
<path d="M149.78 24.8815C149.204 28.8719 148.582 32.1748 149.646 32.4105L149.58 32.764C148.864 32.6233 148.136 32.5564 147.407 32.5643C146.638 32.5576 145.871 32.6245 145.115 32.764L145.184 32.4105C146.713 32.0995 147.888 26.4004 148.065 24.4494C148.199 23.1204 148.065 21.4117 146.582 21.4117C144.873 21.4117 142.235 24.2268 141.613 27.7327C141.302 30.1714 141.302 32.2763 141.94 32.4105L141.871 32.764C141.159 32.6248 140.434 32.559 139.707 32.5676C138.939 32.5606 138.172 32.6274 137.416 32.7673L137.481 32.4138C138.464 32.2141 139.59 28.9537 140.32 25.5624C141.164 21.7717 141.475 17.7781 140.542 17.6014L140.588 17.3133C141.629 17.3133 142.915 16.6913 143.38 15.9155H143.691L142.005 25.163C143.092 22.613 145.109 20.5802 147.263 20.5802C149.246 20.5802 150.202 21.9551 149.78 24.8815Z" fill="#23418F"/>
<path d="M158.187 20.6228C160.478 20.6228 162.799 21.8438 162.354 23.9944C161.755 27.0977 161.025 31.196 162.089 31.3794L162.02 31.7329C161.038 31.7558 159.669 32.309 158.851 32.7739L158.563 32.6429C158.805 31.9882 159.116 31.1109 159.47 29.9161C158.029 31.8802 156.344 32.7542 154.857 32.7542C151.754 32.7542 150.978 30.1354 152.177 27.9193C153.375 25.8112 155.545 24.9928 157.964 24.9928C158.821 24.9947 159.675 25.0836 160.514 25.258C160.956 22.5083 160.645 21.2676 158.851 21.0451C156.887 20.7995 155.25 22.3315 156.278 23.5722C156.169 23.8398 155.986 24.0711 155.751 24.2396C155.516 24.4081 155.238 24.5069 154.949 24.5247C154.294 24.5247 153.794 23.9944 154.082 22.996C154.569 21.379 156.403 20.6228 158.187 20.6228ZM160.403 25.8603C160.403 25.8374 160.403 25.8145 160.426 25.8145V25.6934C160.449 25.6934 160.449 25.6704 160.449 25.6475C159.846 25.5553 159.238 25.5039 158.628 25.4937C156.566 25.4937 154.88 26.1811 153.974 28.0437C153.087 29.8376 153.574 31.9228 155.702 31.8802C157.031 31.8573 158.586 30.813 159.761 28.8195C159.98 27.9619 160.203 26.9667 160.403 25.857V25.8603ZM162.576 16.7896C162.177 18.4263 160.612 19.2283 159.303 19.2283C157.993 19.2283 156.822 18.4099 157.263 16.7896H158.694C158.275 18.2561 158.694 19.009 159.316 19.009C159.938 19.009 160.756 18.2757 161.136 16.7896H162.576ZM159.85 15.526L159.669 15.4147C160.468 14.3967 160.291 13.7322 160.426 13.1528C160.485 12.9304 160.618 12.7348 160.803 12.598C160.988 12.4613 161.214 12.3914 161.444 12.3999C161.889 12.3999 162.288 12.665 162.219 13.1528C162.089 14.0595 160.779 14.5931 159.85 15.5227V15.526Z" fill="#23418F"/>
<path d="M183.245 24.8815C182.669 28.8718 182.05 32.1747 183.114 32.4104L183.046 32.7639C182.331 32.6234 181.604 32.5565 180.875 32.5643C180.107 32.5572 179.34 32.6241 178.584 32.7639L178.649 32.4104C180.181 32.0994 181.357 26.4003 181.533 24.4494C181.664 23.1203 181.533 21.4116 180.047 21.4116C178.361 21.4116 175.792 24.1384 175.101 27.5755C174.734 30.2761 174.551 32.2402 175.389 32.4202L175.32 32.7738C174.604 32.6331 173.876 32.5662 173.147 32.5741C172.378 32.567 171.611 32.6339 170.855 32.7738L170.921 32.4202C172.449 32.1092 173.625 26.4102 173.805 24.4592C173.936 23.1302 173.805 21.4214 172.319 21.4214C170.61 21.4214 167.994 24.2169 167.353 27.6966C167.042 30.2041 166.973 32.2795 167.595 32.4202L167.529 32.7738C166.814 32.6331 166.085 32.5662 165.356 32.5741C164.587 32.5672 163.82 32.6341 163.064 32.7738L163.13 32.4202C164.95 32.0438 167.235 22.6195 165.421 22.2725L165.467 21.9812C166.508 21.9812 167.795 21.3625 168.259 20.5867H168.57C168.325 21.8273 167.994 23.5328 167.706 25.2874C168.793 22.6686 170.832 20.5867 173.006 20.5867C174.97 20.5867 175.932 21.9615 175.51 24.888C175.484 25.0119 175.47 25.1379 175.468 25.2645C176.531 22.6686 178.571 20.5867 180.744 20.5867C182.712 20.5801 183.664 21.955 183.245 24.8815Z" fill="#23418F"/>
<path d="M203.709 17.2544C204.278 17.383 204.858 17.4499 205.441 17.4541C206.059 17.4501 206.676 17.3832 207.281 17.2544L207.215 17.6079C206.217 17.8305 205.041 21.2676 204.308 24.7702C203.539 28.4496 203.212 32.2403 204.131 32.4203L204.066 32.7739C203.621 32.6817 203.168 32.6301 202.714 32.62C202.216 32.6387 201.719 32.6901 201.228 32.7739C200.694 29.3171 198.301 23.3496 196.481 20.2463C196.154 21.8438 195.771 23.7948 195.44 25.3464C194.707 28.8719 194.553 32.2435 195.395 32.4203L195.329 32.7739C194.762 32.6454 194.182 32.5785 193.601 32.5742C192.981 32.5783 192.364 32.6452 191.758 32.7739L191.827 32.4203C192.809 32.1977 193.997 28.7606 194.73 25.258C195.506 21.5786 195.817 17.7847 194.907 17.6079L194.972 17.2544C195.468 17.3683 195.973 17.4352 196.481 17.4541C197.02 17.4479 197.556 17.3809 198.079 17.2544C198.678 21.1825 200.606 26.0567 202.58 29.6051L203.601 24.695C204.331 21.1695 204.485 17.7978 203.644 17.621L203.709 17.2544Z" fill="#23418F"/>
<path d="M217.814 20.5803C217.487 22.2858 216.505 28.4071 216.152 30.512C215.13 36.6333 211.569 40.8234 206.004 40.8234C202.635 40.8234 200.393 38.8593 200.393 37.1211C200.377 36.8954 200.406 36.6687 200.481 36.4551C200.556 36.2414 200.673 36.0454 200.827 35.879C200.98 35.7127 201.166 35.5797 201.373 35.4881C201.58 35.3966 201.804 35.3485 202.03 35.3469C202.184 35.3337 202.339 35.3571 202.482 35.4152C202.626 35.4733 202.753 35.5644 202.855 35.6812C202.956 35.798 203.029 35.9371 203.066 36.0872C203.104 36.2373 203.105 36.3942 203.071 36.545C201.742 37.5663 203.182 40.4928 206.017 40.4928C209.83 40.4928 212.737 37.0327 214.354 30.345C213.49 31.9425 212.315 32.7838 210.986 32.7838C204.331 32.7838 205.706 20.5901 212.669 20.5901C213.196 20.5873 213.715 20.7128 214.183 20.9558C214.651 21.1987 215.052 21.5518 215.353 21.9846C216.129 21.7653 217.173 21.1433 217.503 20.5901L217.814 20.5803ZM214.711 28.741C214.777 28.3417 214.865 27.9194 214.931 27.4971C215.441 24.4823 215.111 21.091 212.639 21.0222C208.181 20.9109 206.871 31.9556 211.507 31.9556C213.202 31.9556 214.155 30.4465 214.711 28.741Z" fill="#23418F"/>
<path d="M230.71 20.5803C229.001 29.9359 229.001 31.3827 229.823 31.3827L229.757 31.7363C228.775 31.7592 227.407 32.3124 226.585 32.7772L226.297 32.6463C226.625 31.8246 226.952 30.8262 227.25 29.7853C226.186 31.625 224.7 32.7772 222.772 32.7772C219.911 32.7772 219.2 30.5153 219.734 27.723C220.245 25.1501 220.552 22.4462 219.6 22.2694L219.646 21.9781C220.687 21.9781 221.973 21.3594 222.438 20.5836H222.765C222.412 22.4233 221.855 25.2614 221.544 27.723C221.279 29.8966 221.413 31.9589 223.476 31.9589C225.538 31.9589 227.243 29.7624 227.931 27.101C228.441 24.6198 228.553 22.4462 227.577 22.2694L227.62 21.9781C228.664 21.9781 229.95 21.3594 230.415 20.5836L230.71 20.5803Z" fill="#23418F"/>
<path d="M224.535 35.3469C225.19 35.3469 225.756 35.7692 225.622 36.545C224.293 37.5663 225.38 39.9363 228.218 39.9363C231.985 39.9363 235.269 35.8346 236.621 32.6626C236.863 29.2713 234.657 21.3791 232.542 20.9339L232.63 20.5803C233.386 20.7202 234.153 20.7871 234.922 20.78C235.651 20.7879 236.38 20.721 237.095 20.5803L237.007 20.9339C235.989 21.1565 237.184 26.1714 238.339 29.6249C241.266 24.5052 243.04 21.199 241.796 20.9339L241.884 20.5803C242.437 20.711 243.003 20.778 243.57 20.78C244.204 20.7726 244.835 20.7058 245.456 20.5803L245.367 20.9339C243.682 21.2612 240.222 27.4808 238.67 30.6036C236.765 34.4369 233.393 40.7121 228.116 40.7121C225.101 40.7121 222.859 39.2718 222.859 37.1113C222.849 36.8843 222.885 36.6576 222.964 36.4448C223.044 36.232 223.165 36.0374 223.322 35.8726C223.478 35.7079 223.666 35.5765 223.875 35.4861C224.083 35.3958 224.308 35.3484 224.535 35.3469Z" fill="#23418F"/>
<path d="M251.146 20.5574C253.474 20.5574 255.402 21.9977 254.894 24.371C254.472 26.3907 252.276 26.8752 250.105 26.8752C248.937 26.8641 247.772 26.7546 246.622 26.5478C246.023 29.985 247.732 32.0702 249.748 32.0702C250.946 32.0702 252.256 31.314 253.231 29.6511H253.807C252.498 31.8476 250.635 32.846 248.93 32.846C246.246 32.846 243.918 30.3614 244.737 26.3482C245.581 22.2662 248.596 20.5574 251.146 20.5574ZM251.015 20.9797C249.46 20.9797 247.532 22.4658 246.711 26.1223C247.695 26.2698 248.688 26.3595 249.683 26.3907C251.28 26.3907 252.698 25.9913 253.074 24.4594C253.624 22.3316 252.498 20.9797 251.005 20.9797H251.015ZM254.384 18.937H252.698C252.843 18.0986 252.821 17.2397 252.632 16.41C252.047 17.2041 251.548 18.059 251.146 18.96H249.441L252.279 16.0793H253.097L254.384 18.937ZM256.446 12.3901C256.119 13.6111 255.159 14.4099 254.154 14.4099C253.713 14.4083 253.284 14.2597 252.937 13.9876C252.585 13.676 252.141 13.4885 251.673 13.454C251.412 13.4611 251.162 13.5577 250.964 13.7276C250.766 13.8975 250.633 14.1303 250.586 14.3869H250.321C250.422 13.8435 250.71 13.3524 251.135 12.9995C251.56 12.6466 252.096 12.4541 252.649 12.4556C253.092 12.447 253.527 12.58 253.889 12.8353C254.228 13.1183 254.647 13.2888 255.087 13.3231C255.344 13.3097 255.588 13.2104 255.781 13.0411C255.974 12.8719 256.105 12.6426 256.151 12.3901H256.446Z" fill="#23418F"/>
<path d="M267.202 24.8815C266.625 28.8719 266.004 32.1748 267.067 32.4105L267.002 32.764C266.286 32.6233 265.558 32.5564 264.828 32.5643C264.06 32.5574 263.293 32.6243 262.537 32.764L262.606 32.4105C264.134 32.0995 265.31 26.4004 265.486 24.4494C265.621 23.1204 265.486 21.4116 264 21.4116C262.295 21.4116 259.679 24.2072 259.034 27.6869C258.723 30.1943 258.658 32.2697 259.28 32.4105L259.211 32.764C258.495 32.6233 257.767 32.5564 257.038 32.5643C256.269 32.5572 255.502 32.6241 254.746 32.764L254.812 32.4105C256.632 32.034 258.913 22.6097 257.103 22.2627L257.146 21.9714C258.19 21.9714 259.476 21.3527 259.941 20.5769H260.252C260.007 21.8175 259.676 23.523 259.385 25.2776C260.471 22.6588 262.514 20.5769 264.684 20.5769C266.668 20.5802 267.624 21.955 267.202 24.8815Z" fill="#23418F"/>
<path d="M94.8393 46.6108C98.4401 46.6108 101.497 49.3834 100.551 53.9433C99.6676 58.2348 96.3975 60.3691 92.2598 60.3691C91.6476 60.3626 91.0365 60.3178 90.4299 60.2349C89.9191 60.1768 89.4055 60.1451 88.8914 60.1399C88.5301 60.135 88.1693 60.1668 87.8145 60.2349L87.8734 59.9272C89.6607 59.5409 92.0667 47.38 90.5478 47.0723L90.6034 46.7646C91.0608 46.8528 91.5255 46.8977 91.9914 46.8988C92.4369 46.9028 92.8815 46.8578 93.3171 46.7646C93.8172 46.6568 94.3278 46.6052 94.8393 46.6108ZM94.8393 46.9774C94.2832 46.9831 93.7313 47.0736 93.2026 47.2458L90.5281 59.6849C91.0555 59.8205 91.5975 59.8908 92.142 59.8944C95.1273 59.8944 97.9556 57.7961 98.8002 53.6749C99.7462 49.2295 97.5497 46.9708 94.8557 46.9708L94.8393 46.9774Z" fill="#ED2024"/>
<path d="M109.248 58.7225C108.811 59.1965 108.297 59.5937 107.729 59.8976C107.153 60.1831 106.518 60.3267 105.876 60.3166C104.928 60.3437 104.004 60.0196 103.28 59.4066C102.949 59.1429 102.682 58.8078 102.499 58.4263C102.316 58.0448 102.221 57.6268 102.223 57.2036C102.226 56.5651 102.367 55.9349 102.635 55.3555C102.904 54.7761 103.293 54.261 103.778 53.845C104.321 53.3137 104.979 52.9144 105.701 52.6777C106.422 52.441 107.189 52.3734 107.941 52.48C108.204 52.511 108.462 52.5725 108.711 52.6633C109.29 52.8761 109.578 53.223 109.578 53.6977C109.577 53.8949 109.533 54.0894 109.449 54.268C109.366 54.4466 109.244 54.6049 109.094 54.7321C108.76 55.0213 108.37 55.2386 107.948 55.3704C107.503 55.5247 107.043 55.6344 106.576 55.6978C106.194 55.7572 105.808 55.7878 105.421 55.7894C105.077 55.7894 104.796 55.7894 104.583 55.76C104.308 55.7378 104.036 55.6896 103.771 55.6159C103.678 55.9176 103.61 56.2263 103.568 56.5391C103.534 56.7447 103.515 56.9526 103.512 57.161C103.487 57.8973 103.718 58.6195 104.167 59.2037C104.377 59.4801 104.65 59.7029 104.963 59.8537C105.276 60.0044 105.62 60.079 105.968 60.0711C106.579 60.0727 107.18 59.9111 107.709 59.603C108.198 59.3007 108.639 58.9278 109.018 58.4966L109.248 58.7225ZM107.899 52.8924C107.636 52.7458 107.338 52.6754 107.038 52.6895C106.299 52.6876 105.588 52.9688 105.051 53.4751C104.498 53.9587 104.107 54.6011 103.931 55.3148C104.349 55.4422 104.782 55.5105 105.218 55.5177C105.547 55.5189 105.875 55.4926 106.2 55.4392C106.545 55.3951 106.882 55.3037 107.202 55.1675C107.52 55.0588 107.796 54.852 107.989 54.5767C108.183 54.3015 108.284 53.9719 108.279 53.6355C108.288 53.4889 108.258 53.3423 108.191 53.2115C108.125 53.0806 108.023 52.9703 107.899 52.8924ZM104.825 60.8142C105.015 60.8142 105.198 60.8897 105.332 61.0242C105.466 61.1586 105.542 61.3409 105.542 61.5311C105.542 61.7212 105.466 61.9036 105.332 62.038C105.198 62.1724 105.015 62.248 104.825 62.248C104.635 62.248 104.453 62.1724 104.318 62.038C104.184 61.9036 104.108 61.7212 104.108 61.5311C104.108 61.3409 104.184 61.1586 104.318 61.0242C104.453 60.8897 104.635 60.8142 104.825 60.8142Z" fill="#ED2024"/>
<path d="M112.011 54.9287H112.041C112.216 54.5897 112.411 54.2618 112.626 53.9466C112.833 53.6543 113.077 53.3892 113.35 53.1577C113.917 52.6698 114.644 52.4076 115.393 52.4212C115.835 52.4054 116.276 52.4826 116.687 52.6478C117.098 52.813 117.47 53.0625 117.779 53.3803C118.084 53.7046 118.322 54.0864 118.478 54.5034C118.634 54.9204 118.706 55.3643 118.689 55.8092C118.693 56.4665 118.537 57.1149 118.234 57.698C117.94 58.2493 117.531 58.7314 117.036 59.1122C116.375 59.617 115.613 59.9743 114.802 60.1601C113.991 60.3459 113.15 60.3558 112.335 60.1891C111.995 60.1165 111.66 60.0203 111.333 59.9011L111.039 61.7571C111.026 61.88 111.019 62.0034 111.019 62.127C111.019 62.51 111.255 62.726 111.726 62.7817C111.838 62.7948 111.893 62.8177 111.893 62.8504C111.893 62.9126 111.867 62.9421 111.808 62.9421C111.644 62.9421 111.402 62.9421 111.081 62.9061C110.761 62.8701 110.525 62.8799 110.361 62.8799L109.346 62.929C109.216 62.929 109.098 62.929 108.996 62.929C108.895 62.929 108.855 62.8995 108.855 62.8373C108.855 62.7751 108.911 62.7817 109.019 62.7522C109.246 62.6934 109.445 62.5552 109.579 62.3627C109.78 61.9096 109.909 61.4281 109.962 60.9355L110.99 54.9876C111.045 54.6519 111.078 54.3129 111.088 53.9728C111.099 53.807 111.056 53.642 110.967 53.5019C110.877 53.3618 110.745 53.2539 110.59 53.1937C110.522 53.1937 110.486 53.1479 110.486 53.1119C110.486 53.0759 110.512 53.0628 110.564 53.0333L112.368 52.634L112.011 54.9287ZM111.412 59.1842C111.606 59.4852 111.901 59.7078 112.243 59.8127C112.646 59.9831 113.079 60.071 113.517 60.0713C114.114 60.0784 114.703 59.9294 115.226 59.6392C115.708 59.3555 116.121 58.9673 116.434 58.5033C117.093 57.5304 117.431 56.3753 117.399 55.2004C117.424 54.5767 117.237 53.9629 116.869 53.4589C116.682 53.2119 116.437 53.0141 116.157 52.8824C115.876 52.7507 115.568 52.689 115.258 52.7027C114.764 52.705 114.282 52.8543 113.874 53.1315C113.461 53.4143 113.103 53.7691 112.816 54.1791C112.529 54.5938 112.292 55.041 112.109 55.5114C111.946 55.9188 111.826 56.3423 111.752 56.7749L111.412 59.1842Z" fill="#ED2024"/>
<path d="M132.212 53.5602C132.196 53.6016 132.175 53.6411 132.15 53.678C132.124 53.7206 132.097 53.7402 132.078 53.7402C132.058 53.7402 132.006 53.6813 131.97 53.5602C131.603 52.4472 130.98 51.8907 130.101 51.8907C129.479 51.8828 128.867 52.0508 128.336 52.3752C127.829 52.6886 127.403 53.1156 127.089 53.6224C126.418 54.6736 126.076 55.9012 126.107 57.1479C126.082 57.8991 126.329 58.6342 126.804 59.2167C127.07 59.5278 127.404 59.7739 127.779 59.9362C128.155 60.0984 128.563 60.1726 128.971 60.1529C129.587 60.1428 130.192 59.9868 130.736 59.6979C131.279 59.4038 131.783 59.0419 132.235 58.621L132.405 58.8632C131.967 59.3674 131.425 59.7698 130.815 60.0423C130.206 60.3149 129.544 60.4509 128.876 60.441C127.636 60.441 126.644 60.1464 125.894 59.5539C125.484 59.2219 125.158 58.7971 124.944 58.3144C124.73 57.8318 124.634 57.3051 124.663 56.778C124.656 56.0721 124.804 55.3731 125.096 54.7306C125.389 54.088 125.819 53.5175 126.356 53.0593C127.373 52.1104 128.716 51.5878 130.107 51.5994C131.058 51.552 132.003 51.7696 132.837 52.2279L132.212 53.5602Z" fill="#ED2024"/>
<path d="M142.391 54.5161C141.946 57.5964 141.468 60.1464 142.29 60.3363L142.237 60.608C141.685 60.4992 141.124 60.4477 140.561 60.4541C139.969 60.4488 139.379 60.5003 138.797 60.608L138.849 60.3363C140.028 60.0941 140.938 55.6945 141.072 54.1887C141.177 53.1641 141.072 51.845 139.926 51.845C138.617 51.845 136.571 54.0185 136.093 56.7224C135.851 58.6046 135.851 60.2315 136.348 60.3232L136.296 60.5949C135.744 60.4861 135.182 60.4346 134.62 60.4411C134.028 60.4357 133.437 60.4873 132.855 60.5949L132.908 60.3232C133.661 60.1693 134.545 57.6521 135.098 55.0333C135.752 52.1068 135.988 49.0232 135.271 48.8857L135.304 48.6631C136.109 48.6631 137.101 48.1852 137.461 47.5862H137.7L136.391 54.7256C137.229 52.7615 138.787 51.1804 140.447 51.1804C141.982 51.1935 142.715 52.2541 142.391 54.5161Z" fill="#ED2024"/>
<path d="M153.692 52.0022L153.038 55.603C152.936 56.1726 152.851 56.7422 152.789 57.3052C152.726 57.8814 152.692 58.4605 152.687 59.0401C152.687 59.5639 152.812 59.9141 153.054 60.0909L153.149 60.1531C153.162 60.1605 153.173 60.1709 153.181 60.1835C153.189 60.196 153.193 60.2103 153.195 60.2251C153.195 60.2742 153.159 60.3004 153.087 60.3004H151.623C151.5 59.3596 151.472 58.4088 151.538 57.4623H151.506C151.156 58.2998 150.631 59.0531 149.967 59.6719C149.255 60.2598 148.353 60.5692 147.43 60.5427C145.667 60.5427 144.785 59.6763 144.785 57.9435C144.788 57.6881 144.808 57.4332 144.847 57.1808C144.867 57.0106 144.913 56.7487 144.978 56.3952L145.538 53.5342C145.553 53.4542 145.561 53.3732 145.564 53.2919C145.563 53.1488 145.518 53.0095 145.436 52.8925C145.353 52.7756 145.237 52.6865 145.103 52.6372C145.021 52.6012 144.978 52.5554 144.978 52.503C144.978 52.4507 145.001 52.4539 145.05 52.4277C145.091 52.4047 145.135 52.3881 145.181 52.3787L147.063 52.0284L146.081 57.2659C146.033 57.5549 146.007 57.847 146.003 58.1399C145.995 58.4027 146.039 58.6643 146.133 58.9099C146.227 59.1554 146.368 59.3799 146.55 59.5704C146.738 59.7616 146.963 59.9116 147.212 60.0108C147.461 60.11 147.728 60.1562 147.996 60.1466C148.619 60.1467 149.221 59.9224 149.692 59.5148C150.175 59.0879 150.569 58.5694 150.851 57.9893C151.149 57.3807 151.391 56.7463 151.574 56.094C151.656 55.8125 151.738 55.5081 151.817 55.1807L152.422 52.2641L153.692 52.0022Z" fill="#ED2024"/>
<path d="M160.216 51.8811C161.836 51.8811 163.453 52.7355 163.142 54.2445C162.72 56.4214 162.209 59.2987 162.956 59.4231L162.906 59.6719C162.122 59.7541 161.364 60.003 160.684 60.4019L160.481 60.3103C160.651 59.8585 160.87 59.2366 161.135 58.3953C160.124 59.7636 158.942 60.3855 157.901 60.3855C155.724 60.3855 155.181 58.5524 156.019 56.9975C156.86 55.5212 158.382 54.9451 160.078 54.9451C160.679 54.9464 161.278 55.0089 161.865 55.1316C162.193 53.2036 161.96 52.3328 160.7 52.1855C159.332 52.0153 158.18 53.089 158.896 53.9597C158.817 54.1448 158.688 54.304 158.523 54.4197C158.358 54.5353 158.164 54.6027 157.963 54.6144C157.512 54.6144 157.155 54.2413 157.358 53.5407C157.682 52.4081 158.959 51.8811 160.216 51.8811ZM161.774 55.5507C161.774 55.5343 161.774 55.5212 161.774 55.5212V55.4263C161.774 55.4263 161.774 55.4099 161.774 55.3968C161.351 55.3308 160.925 55.2937 160.497 55.2855C159.054 55.2855 157.878 55.77 157.224 57.0761C156.569 58.3822 156.942 59.7963 158.435 59.7636C159.371 59.7636 160.458 59.0172 161.283 57.6195C161.476 57.027 161.633 56.3297 161.774 55.5507Z" fill="#ED2024"/>
<path d="M174.868 63.4297C174.99 63.4155 175.114 63.4306 175.229 63.4737C175.344 63.5168 175.447 63.5867 175.529 63.6776C175.612 63.7685 175.672 63.8777 175.704 63.9963C175.735 64.1149 175.739 64.2393 175.713 64.3594C174.678 65.1548 175.523 66.9978 177.729 66.9978C180.659 66.9978 183.209 63.8094 184.276 61.3445C184.466 58.7061 182.741 52.5684 181.104 52.2247L181.173 51.9497C181.758 52.0575 182.352 52.109 182.947 52.1035C183.514 52.1101 184.08 52.0585 184.636 51.9497L184.568 52.2247C183.775 52.3982 184.705 56.3099 185.602 58.9811C187.877 55.0006 189.258 52.4342 188.293 52.2247L188.362 51.9497C188.791 52.0509 189.23 52.1025 189.671 52.1035C190.163 52.0981 190.654 52.0466 191.137 51.9497L191.069 52.2247C189.759 52.4833 187.068 57.3083 185.861 59.7536C184.378 62.7357 181.759 67.6099 177.654 67.6099C175.31 67.6099 173.569 66.4904 173.569 64.8177C173.558 64.64 173.584 64.4621 173.644 64.2947C173.704 64.1273 173.798 63.974 173.92 63.8441C174.042 63.7142 174.188 63.6105 174.351 63.5392C174.515 63.468 174.69 63.4307 174.868 63.4297Z" fill="#ED2024"/>
<path d="M173.628 54.7845C173.206 57.6946 172.754 60.1071 173.53 60.2839L173.481 60.5425C172.959 60.4369 172.428 60.3864 171.896 60.3919C171.338 60.3853 170.78 60.4336 170.23 60.536L170.279 60.2774C171.396 60.0515 172.243 55.8942 172.381 54.4702C172.479 53.4882 172.381 52.2541 171.297 52.2541C170.05 52.2541 168.142 54.2902 167.674 56.837C167.448 58.6668 167.399 60.1857 167.85 60.2839L167.805 60.5425C167.282 60.4392 166.75 60.391 166.217 60.3985C165.658 60.392 165.1 60.4403 164.551 60.5425L164.6 60.2839C165.909 60.0089 167.592 53.1347 166.266 52.8761L166.299 52.6633C167.058 52.6633 167.998 52.2116 168.338 51.6453H168.564C168.384 52.552 168.142 53.7959 167.932 55.0758C168.724 53.1674 170.224 51.6453 171.798 51.6453C173.239 51.6453 173.936 52.6469 173.628 54.7845Z" fill="#ED2024"/>
<path d="M198.433 55.5964L200.833 54.0743C201.219 53.8301 201.587 53.5577 201.933 53.2592C202.296 52.9318 202.476 52.6961 202.476 52.5325C202.476 52.4713 202.456 52.4118 202.42 52.3622C202.393 52.314 202.358 52.2708 202.316 52.2346L202.224 52.1429C202.191 52.1102 202.178 52.0873 202.178 52.0742C202.178 52.0611 202.227 51.9956 202.329 51.9956L203.226 52.0185L204.898 51.9956C204.97 51.9956 205.006 52.0185 205.006 52.0578C205.006 52.0971 204.915 52.1822 204.732 52.2477C204.265 52.3979 203.815 52.5931 203.386 52.8304C202.993 53.0486 202.58 53.2985 202.145 53.58L199.527 55.3149V55.3444C200.4 55.3444 201.054 55.543 201.491 55.9402C201.711 56.1471 201.899 56.3867 202.047 56.6505C202.165 56.8502 202.332 57.171 202.545 57.6129C202.805 58.1466 203.104 58.6608 203.438 59.1514C203.648 59.5103 203.956 59.802 204.326 59.9927C204.434 60.0156 204.486 60.0745 204.486 60.1662C204.486 60.1989 204.434 60.212 204.326 60.212L203.311 60.1662L202.355 60.212L200.748 56.729C200.648 56.538 200.528 56.358 200.391 56.1922C200.266 56.0198 200.103 55.8789 199.914 55.7806C199.726 55.6823 199.517 55.6293 199.304 55.6259C199.147 55.6095 198.989 55.6348 198.846 55.6991C198.702 55.7635 198.578 55.8647 198.486 55.9925C198.414 56.1177 198.36 56.252 198.325 56.3919L198.244 56.7978L197.991 58.464C197.969 58.6486 197.958 58.8345 197.959 59.0205C197.937 59.2237 197.978 59.4287 198.075 59.6086C198.172 59.7885 198.321 59.9349 198.502 60.0287C198.577 60.0811 198.617 60.1171 198.617 60.1367C198.617 60.1563 198.574 60.212 198.486 60.212L197.556 60.176H196.463H196.371L195.821 60.1989C195.805 60.193 195.791 60.1838 195.779 60.1719C195.768 60.1601 195.758 60.1459 195.752 60.1302C195.75 60.0956 195.759 60.0612 195.778 60.0322C195.796 60.0031 195.824 59.9812 195.857 59.9698C196.138 59.8809 196.373 59.6859 196.512 59.4264C196.76 58.7576 196.929 58.0622 197.016 57.3543L198.155 50.6273C198.181 50.4716 198.192 50.3138 198.188 50.1559C198.207 49.9877 198.163 49.8184 198.065 49.6802C197.968 49.5421 197.822 49.4446 197.658 49.4063C197.599 49.3867 197.569 49.3638 197.569 49.3441C197.569 49.3245 197.569 49.2852 197.615 49.2852L199.579 48.7942L198.433 55.5964Z" fill="#ED2024"/>
<path d="M214.503 54.9188C214.1 57.7013 213.668 60.0025 214.411 60.1727L214.366 60.4182C213.866 60.3207 213.359 60.2746 212.85 60.2807C212.316 60.2756 211.784 60.3217 211.259 60.4182L211.305 60.1727C212.372 59.9567 213.19 55.986 213.315 54.6275C213.406 53.7011 213.315 52.5095 212.28 52.5095C211.089 52.5095 209.252 54.4736 208.82 56.9123C208.604 58.6113 208.604 60.0778 209.049 60.1858L209.004 60.4313C208.506 60.3336 207.999 60.2875 207.491 60.2938C206.958 60.2886 206.425 60.3346 205.9 60.4313L205.946 60.1858C206.627 60.045 207.413 57.7765 207.91 55.4131C208.496 52.7714 208.712 49.989 208.064 49.8679L208.097 49.6649C208.82 49.6649 209.734 49.2328 210.041 48.6829H210.257L209.085 55.125C209.842 53.3475 211.246 51.9269 212.745 51.9269C214.123 51.9236 214.798 52.8827 214.503 54.9188Z" fill="#ED2024"/>
<path d="M223.253 53.2297C223.581 53.5767 223.831 53.9901 223.985 54.442C224.139 54.8938 224.194 55.3734 224.147 55.8485C224.115 56.5012 223.954 57.1412 223.673 57.7313C223.392 58.3213 222.997 58.8497 222.51 59.2856C222.073 59.6983 221.554 60.0137 220.986 60.2112C220.419 60.4087 219.816 60.4837 219.217 60.4313C218.337 60.3708 217.515 59.9692 216.926 59.3118C216.598 58.9648 216.348 58.5514 216.194 58.0996C216.04 57.6477 215.985 57.1681 216.032 56.693C216.065 56.0405 216.226 55.4008 216.507 54.8109C216.788 54.221 217.183 53.6925 217.669 53.2559C218.106 52.8432 218.625 52.5278 219.193 52.3303C219.76 52.1328 220.363 52.0578 220.962 52.1102C221.842 52.1707 222.664 52.5723 223.253 53.2297ZM219.325 52.7321C218.872 53.0094 218.491 53.391 218.215 53.8451C217.907 54.3316 217.672 54.8611 217.518 55.4164C217.356 55.9802 217.252 56.5595 217.21 57.1448C217.112 57.8678 217.245 58.6036 217.59 59.2463C217.765 59.5243 218.006 59.7547 218.292 59.9169C218.577 60.0791 218.899 60.1681 219.227 60.176C219.781 60.227 220.338 60.1059 220.821 59.829C221.28 59.556 221.666 59.1765 221.947 58.7226C222.254 58.2382 222.487 57.7108 222.638 57.1579C222.802 56.5921 222.905 56.0105 222.946 55.4229C223.045 54.7006 222.914 53.9654 222.572 53.3214C222.395 53.0406 222.15 52.8085 221.86 52.6462C221.571 52.4839 221.245 52.3964 220.913 52.3917C220.364 52.3431 219.814 52.4618 219.335 52.7321H219.325Z" fill="#ED2024"/>
<path d="M230.732 52.1658C232.297 52.1658 233.861 52.994 233.56 54.4572C233.154 56.5653 232.657 59.351 233.38 59.4721L233.334 59.7111C232.575 59.7917 231.842 60.0327 231.184 60.4182L230.987 60.3298C231.151 59.8911 231.364 59.2888 231.603 58.477C230.621 59.8028 229.481 60.4051 228.473 60.4051C226.365 60.4051 225.838 58.6276 226.65 57.1316C227.462 55.7011 228.941 55.1446 230.578 55.1446C231.16 55.1455 231.74 55.2059 232.31 55.3247C232.611 53.4588 232.398 52.6142 231.18 52.4637C229.871 52.2967 228.738 53.3377 229.432 54.179C229.358 54.3619 229.234 54.5203 229.075 54.6361C228.915 54.7519 228.726 54.8204 228.529 54.8336C228.093 54.8336 227.746 54.4736 227.943 53.7959C228.277 52.6764 229.508 52.1658 230.732 52.1658ZM232.238 55.7175V55.688V55.5963C232.238 55.5963 232.238 55.5964 232.238 55.5669C231.829 55.5048 231.417 55.4698 231.004 55.4621C229.602 55.4621 228.457 55.9302 227.841 57.1938C227.226 58.4573 227.57 59.8126 229.013 59.8126C229.917 59.7962 230.977 59.0891 231.769 57.7339C231.95 57.148 232.1 56.4638 232.238 55.7175Z" fill="#ED2024"/>
<path d="M95.2241 52.3752C94.7658 53.4358 93.4532 54.1265 92.0751 54.1265C91.4952 54.1322 90.9214 54.0081 90.3958 53.7632C89.8567 53.4787 89.2602 53.3198 88.651 53.2984C87.8589 53.2984 87.3416 53.665 87.1551 54.1069H86.7852C87.0601 53.0692 88.5561 52.4342 89.9931 52.4342C90.5805 52.4215 91.1639 52.533 91.7052 52.7615C92.215 53.0157 92.7727 53.1595 93.3419 53.1838C94.2879 53.1838 94.6873 52.6633 94.8084 52.3752H95.2241Z" fill="#ED2024"/>
<path d="M161.938 48.3816C162.26 48.3103 162.594 48.3014 162.92 48.3554C163.2 48.393 163.465 48.5061 163.686 48.6827C163.794 48.7698 163.876 48.8847 163.923 49.0151C163.97 49.1456 163.981 49.2865 163.954 49.4225C163.918 49.5832 163.824 49.7246 163.689 49.8186C163.625 49.8693 163.557 49.9143 163.486 49.9528L163.267 50.0707C163.165 50.123 163.09 50.1656 163.037 50.1983C162.973 50.2361 162.913 50.28 162.857 50.3293C162.798 50.3828 162.749 50.4478 162.715 50.5203C162.681 50.5928 162.661 50.6714 162.658 50.7516L162.386 50.7025C162.405 50.5245 162.469 50.3544 162.573 50.2082C162.615 50.1591 162.664 50.1001 162.73 50.0314L162.884 49.8775L163.054 49.7237C163.109 49.6615 163.162 49.6058 163.208 49.5502C163.297 49.4438 163.358 49.3166 163.384 49.1803C163.443 48.853 163.293 48.65 162.929 48.5845C162.566 48.5191 162.275 48.7253 162.003 49.1836L161.938 48.3816Z" fill="#ED2024"/>
<path d="M159.74 51.3443L159.387 51.2821L160.899 49.9399L161.534 50.0512L162.519 51.8222L162.169 51.7633L161.122 50.5914L159.74 51.3443Z" fill="#ED2024"/>
</svg>
