<svg width="4" height="8" viewBox="0 0 4 8" fill="none" xmlns="http://www.w3.org/2000/svg">
<path d="M3.51075 2.78875L0.951212 0.166151C0.846732 0.0597322 0.705398 0 0.558079 0C0.41076 0 0.269427 0.0597322 0.164947 0.166151C0.112681 0.219268 0.0711964 0.282462 0.0428861 0.352089C0.0145757 0.421716 0 0.496398 0 0.571826C0 0.647254 0.0145757 0.721936 0.0428861 0.791563C0.0711964 0.86119 0.112681 0.924384 0.164947 0.977501L2.73007 3.59439C2.78233 3.64751 2.82382 3.7107 2.85213 3.78033C2.88044 3.84996 2.89501 3.92464 2.89501 4.00007C2.89501 4.07549 2.88044 4.15018 2.85213 4.2198C2.82382 4.28943 2.78233 4.35262 2.73007 4.40574L0.164947 7.02263C0.0599427 7.12946 0.000657961 7.27466 0.000135078 7.42628C-0.000387806 7.57791 0.0578944 7.72353 0.16216 7.83112C0.266425 7.93871 0.408132 7.99946 0.556108 8C0.704084 8.00053 0.846207 7.94081 0.951212 7.83398L3.51075 5.21138C3.82403 4.88998 4 4.45431 4 4.00007C4 3.54582 3.82403 3.11015 3.51075 2.78875Z" fill="#828282"/>
</svg>
