<svg width="20" height="20" viewBox="0 0 20 20" fill="none" xmlns="http://www.w3.org/2000/svg">
<path d="M12.025 4.31667C12.1833 4.31667 12.3417 4.375 12.4667 4.5L17.525 9.55833C17.7667 9.8 17.7667 10.2 17.525 10.4417L12.4667 15.5C12.225 15.7417 11.825 15.7417 11.5833 15.5C11.3417 15.2583 11.3417 14.8583 11.5833 14.6167L16.2 10L11.5833 5.38333C11.3417 5.14166 11.3417 4.74167 11.5833 4.5C11.7 4.375 11.8667 4.31667 12.025 4.31667Z" fill="#FAFAFA"/>
<path d="M2.91665 9.375H16.9417C17.2833 9.375 17.5667 9.65833 17.5667 10C17.5667 10.3417 17.2833 10.625 16.9417 10.625H2.91665C2.57498 10.625 2.29165 10.3417 2.29165 10C2.29165 9.65833 2.57498 9.375 2.91665 9.375Z" fill="#FAFAFA"/>
</svg>
