<svg width="18" height="18" viewBox="0 0 18 18" fill="none" xmlns="http://www.w3.org/2000/svg">
<path d="M9 17C13.4183 17 17 13.4183 17 9C17 4.58172 13.4183 1 9 1C4.58172 1 1 4.58172 1 9C1 13.4183 4.58172 17 9 17Z" stroke="#212121" stroke-width="1.2" stroke-miterlimit="10"/>
<path d="M11.7894 6.85951V6.57404C11.7894 6.19557 11.6391 5.83268 11.3715 5.56506C11.1038 5.29744 10.7409 5.14709 10.3624 5.14709H7.64242C7.26355 5.14709 6.90012 5.29725 6.63181 5.56475C6.3635 5.83224 6.21219 6.19517 6.21104 6.57404V6.85951C6.21135 7.17219 6.31437 7.47604 6.50422 7.72448C6.69407 7.97293 6.96026 8.15218 7.26188 8.23462L10.7213 9.76544C11.0225 9.84952 11.2879 10.0299 11.4768 10.279C11.6658 10.5281 11.768 10.8322 11.7678 11.1449V11.4259C11.7678 11.8048 11.6176 12.1683 11.3501 12.4366C11.0826 12.7049 10.7197 12.8561 10.3408 12.8573H7.62078C7.24116 12.8573 6.87712 12.7065 6.60869 12.4381C6.34026 12.1696 6.18945 11.8055 6.18945 11.4259V11.1449" stroke="#212121" stroke-width="1.2" stroke-miterlimit="10" stroke-linecap="round"/>
<path d="M9 3.95782V14.0465" stroke="#212121" stroke-width="1.2" stroke-miterlimit="10" stroke-linecap="round"/>
</svg>
