<svg width="30" height="23" viewBox="0 0 30 23" fill="none" xmlns="http://www.w3.org/2000/svg">
<path d="M4.42128 1H25.5008C25.9501 1 26.395 1.08849 26.8101 1.26043C27.2251 1.43237 27.6023 1.68437 27.92 2.00207C28.2377 2.31977 28.4897 2.69692 28.6616 3.11201C28.8336 3.5271 28.9221 3.97199 28.9221 4.42128V9.32923H1V4.42128C1 3.5139 1.36046 2.64368 2.00207 2.00207C2.64368 1.36046 3.5139 1 4.42128 1Z" stroke="#1C659F" stroke-width="1.2" stroke-miterlimit="10"/>
<path d="M8.30349 9.32275H1V12.0494H8.30349V9.32275Z" stroke="#1C659F" stroke-width="1.2" stroke-miterlimit="10"/>
<path d="M4.39522 12.0559H2.62939V22.2548H4.39522V12.0559Z" stroke="#1C659F" stroke-width="1.2" stroke-miterlimit="10"/>
<path d="M27.2927 12.0559H25.5269V22.2548H27.2927V12.0559Z" stroke="#1C659F" stroke-width="1.2" stroke-miterlimit="10"/>
<path d="M6.93358 20.4306C6.54261 20.4087 6.17604 20.2335 5.91349 19.943C5.65094 19.6525 5.5136 19.2701 5.53131 18.879V17.8143H18.8204V18.879C18.8027 19.2701 18.9401 19.6525 19.2026 19.943C19.4652 20.2335 19.8317 20.4087 20.2227 20.4306C20.6131 20.4087 20.979 20.2333 21.2406 19.9426C21.5021 19.6519 21.6379 19.2695 21.6185 18.879V9.32275" stroke="#1C659F" stroke-width="1.2" stroke-miterlimit="10"/>
<path d="M8.33594 9.32275V17.8143" stroke="#1C659F" stroke-width="1.2" stroke-miterlimit="10"/>
<path d="M28.9221 9.32275H21.6187V12.0494H28.9221V9.32275Z" stroke="#1C659F" stroke-width="1.2" stroke-miterlimit="10"/>
<path d="M24.9231 3.45398H22.8846C22.1854 3.45398 21.6187 4.01931 21.6187 4.71667C21.6187 5.41404 22.1854 5.97937 22.8846 5.97937H24.9231C25.6222 5.97937 26.189 5.41404 26.189 4.71667C26.189 4.01931 25.6222 3.45398 24.9231 3.45398Z" stroke="#1C659F" stroke-width="1.2" stroke-miterlimit="10"/>
<path d="M4.83039 5.97939C5.52955 5.97939 6.09633 5.41261 6.09633 4.71345C6.09633 4.01429 5.52955 3.44751 4.83039 3.44751C4.13123 3.44751 3.56445 4.01429 3.56445 4.71345C3.56445 5.41261 4.13123 5.97939 4.83039 5.97939Z" stroke="#1C659F" stroke-width="1.2" stroke-miterlimit="10"/>
<path d="M9.74494 5.97939C10.4441 5.97939 11.0109 5.41261 11.0109 4.71345C11.0109 4.01429 10.4441 3.44751 9.74494 3.44751C9.04578 3.44751 8.479 4.01429 8.479 4.71345C8.479 5.41261 9.04578 5.97939 9.74494 5.97939Z" stroke="#1C659F" stroke-width="1.2" stroke-miterlimit="10"/>
<path d="M6.93359 20.4305H20.2227" stroke="#1C659F" stroke-width="1.2" stroke-miterlimit="10"/>
<path d="M1 22.2548H6.09622" stroke="#1C659F" stroke-width="1.2" stroke-miterlimit="10"/>
<path d="M23.9102 22.2548H28.9999" stroke="#1C659F" stroke-width="1.2" stroke-miterlimit="10"/>
</svg>
