<svg width="30" height="23" viewBox="0 0 30 23" fill="none" xmlns="http://www.w3.org/2000/svg">
<path d="M4.42128 1H25.5008C25.9501 1 26.395 1.08849 26.8101 1.26043C27.2251 1.43237 27.6023 1.68437 27.92 2.00207C28.2377 2.31977 28.4897 2.69692 28.6616 3.11201C28.8336 3.5271 28.9221 3.97199 28.9221 4.42128V9.32923H1V4.42128C1 3.5139 1.36046 2.64368 2.00207 2.00207C2.64368 1.36046 3.5139 1 4.42128 1Z" stroke="#1C659F" stroke-width="1.2" stroke-miterlimit="10"/>
<path d="M8.30349 9.32275H1V12.0494H8.30349V9.32275Z" stroke="#1C659F" stroke-width="1.2" stroke-miterlimit="10"/>
<path d="M4.39473 12.0559H2.62891V22.2548H4.39473V12.0559Z" stroke="#1C659F" stroke-width="1.2" stroke-miterlimit="10"/>
<path d="M27.2932 12.0559H25.5273V22.2548H27.2932V12.0559Z" stroke="#1C659F" stroke-width="1.2" stroke-miterlimit="10"/>
<path d="M6.93309 20.4306C6.54212 20.4087 6.17556 20.2335 5.913 19.943C5.65045 19.6525 5.51311 19.2701 5.53082 18.879V17.8143H18.8199V18.879C18.8022 19.2701 18.9396 19.6525 19.2021 19.943C19.4647 20.2335 19.8312 20.4087 20.2222 20.4306C20.6126 20.4087 20.9786 20.2333 21.2401 19.9426C21.5016 19.6519 21.6375 19.2695 21.618 18.879V9.32275" stroke="#1C659F" stroke-width="1.2" stroke-miterlimit="10"/>
<path d="M8.33594 9.32275V17.8143" stroke="#1C659F" stroke-width="1.2" stroke-miterlimit="10"/>
<path d="M28.9226 9.32275H21.6191V12.0494H28.9226V9.32275Z" stroke="#1C659F" stroke-width="1.2" stroke-miterlimit="10"/>
<path d="M24.9236 3.4541H22.8851C22.1859 3.4541 21.6191 4.01943 21.6191 4.71679C21.6191 5.41416 22.1859 5.97949 22.8851 5.97949H24.9236C25.6227 5.97949 26.1895 5.41416 26.1895 4.71679C26.1895 4.01943 25.6227 3.4541 24.9236 3.4541Z" stroke="#1C659F" stroke-width="1.2" stroke-miterlimit="10"/>
<path d="M4.83039 5.97939C5.52955 5.97939 6.09633 5.41261 6.09633 4.71345C6.09633 4.01429 5.52955 3.44751 4.83039 3.44751C4.13123 3.44751 3.56445 4.01429 3.56445 4.71345C3.56445 5.41261 4.13123 5.97939 4.83039 5.97939Z" stroke="#1C659F" stroke-width="1.2" stroke-miterlimit="10"/>
<path d="M9.74445 5.97939C10.4436 5.97939 11.0104 5.41261 11.0104 4.71345C11.0104 4.01429 10.4436 3.44751 9.74445 3.44751C9.0453 3.44751 8.47852 4.01429 8.47852 4.71345C8.47852 5.41261 9.0453 5.97939 9.74445 5.97939Z" stroke="#1C659F" stroke-width="1.2" stroke-miterlimit="10"/>
<path d="M6.93359 20.4307H20.2227" stroke="#1C659F" stroke-width="1.2" stroke-miterlimit="10"/>
<path d="M1 22.2549H6.09622" stroke="#1C659F" stroke-width="1.2" stroke-miterlimit="10"/>
<path d="M23.9102 22.2549H28.9999" stroke="#1C659F" stroke-width="1.2" stroke-miterlimit="10"/>
</svg>
