<svg width="101" height="55" viewBox="0 0 101 55" fill="none" xmlns="http://www.w3.org/2000/svg">
<path d="M13.2697 2.17163L6.32422 22.4547H14.4742L17.2529 13.5641L13.2697 2.17163Z" fill="#1C659F"/>
<path d="M5.49085 24.7706L2.99005 31.9021H0.489258L6.32445 40.4219H8.45437L11.14 31.9021L23.272 31.6243L20.9572 24.7706H5.49085Z" fill="#1C659F"/>
<path d="M14.9365 0.504395L25.3094 31.6243H23.2714L32.348 40.4218H35.5905L24.3828 7.91378L14.9365 0.504395Z" fill="#1C659F"/>
<path d="M36.7012 0.134687V18.0089H42.9991V6.06174C42.9991 6.06174 47.7228 6.52447 49.39 8.55687C49.39 8.56254 50.4085 -1.25464 36.7012 0.134687Z" fill="#1C659F"/>
<path d="M38.8324 20.8805H36.7014V31.4383H33.46L40.2206 40.4219H42.9993V28.494L38.8324 20.8805Z" fill="#1C659F"/>
<path d="M41.332 20.8805L46.7964 30.6512L45.0373 31.7161L55.6881 40.4218L58.0959 38.8477L49.7134 24.1219C49.7134 24.1219 57.3541 20.606 56.2427 11.433C56.2427 11.433 55.2219 5.41299 49.7134 3.65393C49.7134 3.65393 53.0931 7.63592 50.4075 14.7686C50.4086 14.7674 48.6495 19.769 41.332 20.8805Z" fill="#1C659F"/>
<path d="M80.2457 0.504395L78.3494 2.21242C78.3494 2.21242 67.9152 -3.00466 61.1807 5.91201C54.4461 14.8287 59.6632 27.6332 69.334 29.4354C69.334 29.4354 64.109 25.9274 64.489 18.6201C64.5155 18.4178 64.5299 18.214 64.5321 18.01C64.613 17.157 64.759 16.3115 64.9687 15.4808C65.429 14.083 66.1528 12.7864 67.1009 11.661C68.9587 9.56283 72.3407 7.21855 77.7766 8.28238C77.7766 8.28238 82.0456 8.94699 85.0805 14.2582L87.3568 11.7926L80.2457 0.504395Z" fill="#1C659F"/>
<path d="M86.9888 32.5872L86.9809 32.5657L81.3838 25.3571V28.392C69.8155 37.3087 60.1367 26.3052 60.1367 26.3052C60.6925 29.8363 62.2736 33.1262 64.6835 35.7663C66.0105 37.1159 68.3763 38.9419 72.1224 39.9467C80.895 42.0404 86.2505 36.5931 86.9797 35.6959C87.5615 35.0801 87.5695 33.3369 87.5695 33.3369L86.9888 32.5872Z" fill="#1C659F"/>
<path d="M1.96548 47.7179H3.35934L5.32709 52.9815H3.8992L3.57483 52.0379H1.73865L1.40634 52.9815H0L1.96548 47.7179ZM2.05394 51.0205H3.2482L2.66638 49.1775H2.65163L2.05394 51.0205Z" fill="#1C659F"/>
<path d="M6.0957 47.7179H8.7791C9.70797 47.7179 10.6221 48.1375 10.6221 49.1991C10.6221 49.7662 10.3499 50.306 9.79643 50.5192V50.534C10.3567 50.6667 10.5189 51.2939 10.5631 51.7952C10.5779 52.022 10.6005 52.7898 10.7899 52.9815H9.42896C9.31555 52.8045 9.28947 52.2885 9.27472 52.1411C9.23729 51.6103 9.14883 51.0648 8.50804 51.0648H7.46803V52.9815H6.0957V47.7179ZM7.46689 50.0032H8.61692C9.02975 50.0032 9.2509 49.7764 9.2509 49.384C9.2509 48.9915 8.94128 48.8169 8.55794 48.8169H7.46689V50.0032Z" fill="#1C659F"/>
<path d="M15.2815 49.5983C15.2078 49.0664 14.7949 48.7863 14.2199 48.7863C13.3353 48.7863 12.9962 49.5688 12.9962 50.3502C12.9962 51.1317 13.3364 51.9131 14.2199 51.9131C14.8619 51.9131 15.2305 51.5445 15.2815 50.94H16.6527C16.579 52.301 15.5843 53.0949 14.2494 53.0949C12.6616 53.0949 11.625 51.8779 11.625 50.3525C11.625 48.8271 12.6571 47.609 14.2494 47.609C15.3836 47.609 16.6164 48.3315 16.6527 49.6006L15.2815 49.5983Z" fill="#1C659F"/>
<path d="M20.4351 52.9815H18.8575L17.1982 47.7179H18.6284L19.6605 51.633H19.6752L20.7073 47.7179H22.1375L20.4351 52.9815Z" fill="#1C659F"/>
<path d="M25.5732 47.7179H26.9444V49.6346H28.7511V47.7179H30.1223V52.9815H28.7511V50.8141H26.9444V52.9815H25.5732V47.7179Z" fill="#1C659F"/>
<path d="M32.8499 47.7179H34.2427L36.2172 52.9815H34.7814L34.457 52.0379H32.6208L32.2897 52.9815H30.8867L32.8499 47.7179ZM32.9384 51.0205H34.1326L33.5497 49.1775H33.535L32.9384 51.0205Z" fill="#1C659F"/>
<path d="M36.9619 47.7179H38.3717L40.1999 50.9616H40.2146V47.7179H41.5053V52.9815H40.0956L38.2673 49.7015H38.2582V52.9815H36.9619V47.7179Z" fill="#1C659F"/>
<path d="M45.2045 47.6067C46.8626 47.6067 47.7994 48.8236 47.7994 50.3502C47.7994 51.8768 46.8626 53.0926 45.2045 53.0926C43.5463 53.0926 42.6084 51.8756 42.6084 50.3502C42.6084 48.8248 43.5452 47.6067 45.2045 47.6067ZM45.2045 51.9164C46.0891 51.9164 46.4282 51.135 46.4282 50.3536C46.4282 49.5722 46.088 48.7896 45.2045 48.7896C44.321 48.7896 43.9796 49.5722 43.9796 50.3536C43.9796 51.135 44.3187 51.9131 45.2045 51.9131V51.9164Z" fill="#1C659F"/>
<path d="M48.9121 47.7179H50.2799V52.9815H48.9121V47.7179Z" fill="#1C659F"/>
<path d="M57.7883 49.5983C57.7146 49.0664 57.3018 48.7863 56.7268 48.7863C55.8421 48.7863 55.503 49.5688 55.503 50.3502C55.503 51.1317 55.8433 51.9131 56.7268 51.9131C57.3676 51.9131 57.7362 51.5445 57.7883 50.94H59.1595C59.0858 52.301 58.09 53.0949 56.7562 53.0949C55.1684 53.0949 54.1318 51.8779 54.1318 50.3525C54.1318 48.8271 55.1639 47.609 56.7562 47.609C57.8904 47.609 59.1221 48.3315 59.1595 49.6006L57.7883 49.5983Z" fill="#1C659F"/>
<path d="M62.6535 47.6067C64.3116 47.6067 65.2485 48.8236 65.2485 50.3502C65.2485 51.8768 64.3116 53.0926 62.6535 53.0926C60.9954 53.0926 60.0586 51.8756 60.0586 50.3502C60.0586 48.8248 60.9943 47.6067 62.6535 47.6067ZM62.6535 51.9164C63.5382 51.9164 63.8773 51.135 63.8773 50.3536C63.8773 49.5722 63.537 48.7896 62.6535 48.7896C61.77 48.7896 61.4298 49.5722 61.4298 50.3536C61.4298 51.135 61.7689 51.9131 62.6535 51.9131V51.9164Z" fill="#1C659F"/>
<path d="M66.3691 51.6079H67.746V52.9791H66.3748L66.3691 51.6079Z" fill="#1C659F"/>
<path d="M69.0674 51.6079H70.4386V52.8248C70.4386 53.8785 69.6197 54.2028 69.0674 54.2618V53.6721C69.4655 53.5689 69.6276 53.3624 69.6719 52.9791H69.0674V51.6079Z" fill="#1C659F"/>
<path d="M74.4473 47.7179H75.8196V51.8008H78.2739V52.9803H74.4473V47.7179Z" fill="#1C659F"/>
<path d="M82.543 48.8974H80.9722V52.9803H79.6011V48.8974H78.0303V47.7179H82.543V48.8974Z" fill="#1C659F"/>
<path d="M83.5107 47.7179H85.779C87.3941 47.7179 88.3592 48.6978 88.3592 50.3264C88.3592 52.0515 87.3793 52.9803 85.779 52.9803H83.5107V47.7179ZM84.8819 51.8008H85.5307C86.5707 51.7793 86.9835 51.3733 86.9835 50.3196C86.9835 49.3613 86.4675 48.8963 85.5307 48.8963H84.8819V51.8008Z" fill="#1C659F"/>
<path d="M94.0312 33.9526H96.1192C97.073 33.9526 97.563 34.3927 97.563 35.1333C97.563 35.9725 96.9812 36.1869 96.8405 36.2357V36.2481C97.1037 36.2844 97.4893 36.475 97.4893 37.1725C97.4893 37.6806 97.563 38.1456 97.7286 38.3225H96.9086C96.7952 38.1331 96.7952 37.8938 96.7952 37.6806C96.7952 36.8776 96.6296 36.5237 95.9264 36.5237H94.8002V38.3225H94.0347L94.0312 33.9526ZM94.7968 35.9419H96.0512C96.5343 35.9419 96.7986 35.7026 96.7986 35.2433C96.7986 34.6864 96.4368 34.5764 96.0387 34.5764H94.7911L94.7968 35.9419Z" fill="#1C659F"/>
<path d="M95.7155 40.4219C98.0819 40.4219 100 38.5035 100 36.1371C100 33.7707 98.0819 31.8523 95.7155 31.8523C93.349 31.8523 91.4307 33.7707 91.4307 36.1371C91.4307 38.5035 93.349 40.4219 95.7155 40.4219Z" stroke="#1C659F" stroke-width="1.2" stroke-miterlimit="10"/>
</svg>
