<svg width="70" height="70" viewBox="0 0 70 70" fill="none" xmlns="http://www.w3.org/2000/svg">
<g clip-path="url(#clip0_2_15)">
<path d="M35.0059 68.8272C53.6849 68.8272 68.8272 53.6849 68.8272 35.0059C68.8272 16.3269 53.6849 1.18464 35.0059 1.18464C16.3269 1.18464 1.18464 16.3269 1.18464 35.0059C1.18464 53.6849 16.3269 68.8272 35.0059 68.8272Z" stroke="white" stroke-width="2" stroke-miterlimit="10" stroke-linecap="round"/>
<path d="M47.9895 32.6603L30.5517 18.9187C30.1268 18.5654 29.6097 18.341 29.0614 18.2726C28.513 18.2042 27.9566 18.2945 27.4579 18.5326C26.9593 18.7707 26.5392 19.1466 26.2477 19.616C25.9562 20.0854 25.8055 20.6287 25.8132 21.1812V48.6647C25.8055 49.2172 25.9562 49.7605 26.2477 50.2299C26.5392 50.6994 26.9593 51.0752 27.4579 51.3133C27.9566 51.5514 28.513 51.6418 29.0614 51.5733C29.6097 51.5049 30.1268 51.2806 30.5517 50.9272L47.9895 37.1857C48.332 36.9163 48.6089 36.5726 48.7993 36.1806C48.9897 35.7887 49.0885 35.3586 49.0885 34.9228C49.0885 34.4871 48.9897 34.0572 48.7993 33.6653C48.6089 33.2734 48.332 32.9297 47.9895 32.6603L30.5517 18.9187C30.1268 18.5654 29.6097 18.341 29.0614 18.2726C28.513 18.2042 27.9566 18.2945 27.4579 18.5326C26.9593 18.7707 26.5392 19.1466 26.2477 19.616C25.9562 20.0854 25.8055 20.6287 25.8132 21.1812V48.6647C25.8055 49.2172 25.9562 49.7605 26.2477 50.2299C26.5392 50.6994 26.9593 51.0752 27.4579 51.3133C27.9566 51.5514 28.513 51.6418 29.0614 51.5733C29.6097 51.5049 30.1268 51.2806 30.5517 50.9272L47.9895 37.1857C48.332 36.9163 48.6089 36.5726 48.7993 36.1806C48.9897 35.7887 49.0885 35.3586 49.0885 34.9228C49.0885 34.4871 48.9897 34.0572 48.7993 33.6653C48.6089 33.2734 48.332 32.9297 47.9895 32.6603Z" fill="white"/>
</g>
<defs>
<clipPath id="clip0_2_15">
<rect width="70" height="70" fill="white"/>
</clipPath>
</defs>
</svg>
