<svg width="20" height="20" viewBox="0 0 20 20" fill="none" xmlns="http://www.w3.org/2000/svg">
<path d="M7.97501 15.6833C7.81668 15.6833 7.65835 15.625 7.53335 15.5L2.47501 10.4417C2.23335 10.2 2.23335 9.8 2.47501 9.55833L7.53335 4.5C7.77501 4.25833 8.17501 4.25833 8.41668 4.5C8.65835 4.74167 8.65835 5.14167 8.41668 5.38333L3.80001 10L8.41668 14.6167C8.65835 14.8583 8.65835 15.2583 8.41668 15.5C8.30001 15.625 8.13335 15.6833 7.97501 15.6833Z" fill="#666666"/>
<path d="M17.0834 10.625H3.05835C2.71668 10.625 2.43335 10.3417 2.43335 10C2.43335 9.65833 2.71668 9.375 3.05835 9.375H17.0834C17.425 9.375 17.7084 9.65833 17.7084 10C17.7084 10.3417 17.425 10.625 17.0834 10.625Z" fill="#666666"/>
</svg>
