<svg width="20" height="20" viewBox="0 0 20 20" fill="none" xmlns="http://www.w3.org/2000/svg">
<path d="M7.975 15.6833C7.81667 15.6833 7.65833 15.625 7.53333 15.5L2.475 10.4417C2.23333 10.2 2.23333 9.80001 2.475 9.55834L7.53333 4.50001C7.775 4.25834 8.175 4.25834 8.41667 4.50001C8.65834 4.74167 8.65834 5.14167 8.41667 5.38334L3.8 10L8.41667 14.6167C8.65834 14.8583 8.65834 15.2583 8.41667 15.5C8.3 15.625 8.13333 15.6833 7.975 15.6833Z" fill="#666666"/>
<path d="M17.0833 10.625H3.05833C2.71667 10.625 2.43333 10.3417 2.43333 10C2.43333 9.65833 2.71667 9.375 3.05833 9.375H17.0833C17.425 9.375 17.7083 9.65833 17.7083 10C17.7083 10.3417 17.425 10.625 17.0833 10.625Z" fill="#666666"/>
</svg>
