<svg width="28" height="26" viewBox="0 0 28 26" fill="none" xmlns="http://www.w3.org/2000/svg">
<path d="M24.4997 7C25.1753 7 25.6663 6.26402 25.6663 5.25C25.6663 4.23598 25.1753 3.5 24.4997 3.5C23.824 3.5 23.333 4.23598 23.333 5.25C23.333 6.26402 23.824 7 24.4997 7Z" fill="#666666"/>
<path d="M26.0951 9.9167C27.2304 9.05822 28 7.32189 28 5.25C28 2.30601 26.4631 0 24.5 0H3.5C1.53694 0 0 2.30601 0 5.25C0 7.32184 0.769617 9.05816 1.90488 9.91665C0.769617 10.7752 0 12.5115 0 14.5834C0 16.8602 0.943906 18.8033 2.33335 19.5246V23.335C2.33335 24.6207 3.3804 25.6666 4.6667 25.6666H13.4167C13.5716 25.6666 13.7198 25.6051 13.8292 25.4957L18.4958 20.8291C18.6052 20.7197 18.6667 20.5716 18.6667 20.4166V19.8334H24.5C26.4631 19.8334 28 17.5273 28 14.5834C28 12.5115 27.2304 10.7752 26.0951 9.9167ZM24.5 1.1667C25.7646 1.1667 26.8334 3.03691 26.8334 5.25005C26.8334 7.4632 25.7646 9.33335 24.5 9.33335C23.2354 9.33335 22.1666 7.46315 22.1666 5.25C22.1666 3.03685 23.2354 1.1667 24.5 1.1667ZM1.16665 5.25C1.16665 3.03685 2.23535 1.16665 3.5 1.16665H22.3013C21.5092 2.12138 21 3.57301 21 5.25C21 6.92699 21.5092 8.37867 22.3013 9.33335H3.5C2.23535 9.33335 1.16665 7.46315 1.16665 5.25ZM2.33335 18.085V18.0957C1.63472 17.3682 1.16665 16.0331 1.16665 14.5834C1.16665 12.3702 2.23535 10.5 3.5 10.5H4.10884C3.36848 11.7248 2.33335 14.1374 2.33335 18.085ZM14 23.6751V22.1667C14 21.5236 14.523 21.0001 15.1666 21.0001H16.6751L14 23.6751ZM17.5 18.0834V19.8334H15.1666C13.8803 19.8334 12.8333 20.8798 12.8333 22.1667V24.5001H4.66665C4.02292 24.5001 3.5 23.9777 3.5 23.3351V18.0851C3.5 13.4344 5.0406 11.1112 5.52032 10.5001H19.0767C18.3375 11.6314 17.5 13.8408 17.5 18.0834ZM18.6666 18.6662V18.0834C18.6666 12.4307 20.222 10.8088 20.5959 10.5H22.3013C21.5092 11.4547 21 12.9064 21 14.5834C21 16.2602 21.5092 17.7119 22.3012 18.6665L18.6666 18.6662ZM24.5 18.6667C23.2354 18.6667 22.1666 16.7965 22.1666 14.5834C22.1666 12.3702 23.2354 10.5 24.5 10.5C25.7646 10.5 26.8334 12.3702 26.8334 14.5834C26.8334 16.7965 25.7646 18.6667 24.5 18.6667Z" fill="#666666"/>
<path d="M24.4997 12.8334C23.824 12.8334 23.333 13.5694 23.333 14.5834C23.333 15.5974 23.824 16.3334 24.4997 16.3334C25.1753 16.3334 25.6663 15.5974 25.6663 14.5834C25.6663 13.5694 25.1753 12.8334 24.4997 12.8334Z" fill="#666666"/>
</svg>
