<svg width="28" height="27" viewBox="0 0 28 27" fill="none" xmlns="http://www.w3.org/2000/svg">
<path d="M22.7679 9.90127C22.9808 8.17222 22.6873 6.36398 21.8142 4.70995C19.5397 0.401178 14.1837 -1.25372 9.87514 1.02073C6.54741 2.77735 4.8032 6.37196 5.229 9.90264C2.14982 11.2851 0 14.3803 0 17.9683C0 22.8406 3.9638 26.8044 8.83608 26.8044C10.7624 26.8044 12.5465 26.1844 14 25.1339C15.4535 26.1844 17.2376 26.8044 19.1639 26.8044C24.0362 26.8044 28 22.8406 28 17.9683C28 14.3791 25.8487 11.2831 22.7679 9.90127ZM10.6409 2.47159C11.7094 1.9076 12.8564 1.6404 13.988 1.6404C16.5727 1.6404 19.0751 3.03553 20.3633 5.47585C21.0172 6.71463 21.2717 8.05956 21.1736 9.36298C20.5278 9.21221 19.855 9.13226 19.1639 9.13226C17.2375 9.13226 15.4535 9.7523 13.9999 10.8028C12.5464 9.75236 10.7624 9.13226 8.83602 9.13226C8.14428 9.13226 7.47097 9.21237 6.82456 9.36342C6.62512 6.60022 8.03819 3.84556 10.6409 2.47159ZM14 12.963C14.7744 13.7617 15.3659 14.7385 15.7058 15.8257C14.5684 16.1031 13.399 16.0916 12.2956 15.8217C12.6355 14.7361 13.2266 13.7607 14 12.963ZM10.7549 15.2542C9.46624 14.6051 8.36008 13.5643 7.63673 12.1939C7.4276 11.7978 7.25966 11.3907 7.13065 10.9776C7.67763 10.8442 8.24868 10.7729 8.83613 10.7729C10.2695 10.7729 11.6062 11.1944 12.7291 11.9196C11.8435 12.8612 11.1618 13.9964 10.7549 15.2542ZM15.2709 11.9196C16.3939 11.1943 17.7306 10.7728 19.1639 10.7728C19.75 10.7728 20.3197 10.8438 20.8655 10.9766C20.3188 12.7295 19.1072 14.2753 17.3591 15.1982C17.3214 15.218 17.2836 15.237 17.2458 15.2562C16.8389 13.9975 16.157 12.8616 15.2709 11.9196ZM8.83608 25.1638C4.86845 25.1638 1.64062 21.9359 1.64062 17.9683C1.64062 15.1679 3.24888 12.7363 5.5901 11.5478C5.74498 12.027 5.94273 12.4994 6.18576 12.9598C7.14405 14.7752 8.64965 16.1184 10.393 16.8962C10.3503 17.2478 10.3278 17.6055 10.3278 17.9684C10.3278 20.3065 11.241 22.435 12.7291 24.0171C11.6061 24.7424 10.2694 25.1638 8.83608 25.1638ZM11.9685 17.9683C11.9685 17.7887 11.9754 17.6108 11.9883 17.4345C12.6498 17.5897 13.3299 17.6698 14.0148 17.6698C14.6803 17.6698 15.3503 17.5936 16.012 17.439C16.0247 17.6138 16.0315 17.7903 16.0315 17.9683C16.0315 19.9119 15.2566 21.6776 14 22.9737C12.7434 21.6776 11.9685 19.9119 11.9685 17.9683ZM19.1639 25.1638C17.7306 25.1638 16.3939 24.7423 15.2709 24.0171C16.7589 22.435 17.6722 20.3065 17.6722 17.9684C17.6722 17.6071 17.6498 17.251 17.6075 16.9009C17.7814 16.823 17.9541 16.7393 18.1249 16.6491H18.125C20.2449 15.53 21.7219 13.6647 22.4051 11.5455C24.7489 12.733 26.3594 15.166 26.3594 17.9683C26.3594 21.9359 23.1316 25.1638 19.1639 25.1638Z" fill="#666666"/>
</svg>
