<svg width="50" height="50" viewBox="0 0 50 50" fill="none" xmlns="http://www.w3.org/2000/svg">
<rect width="50" height="50" rx="5" fill="#1C659F"/>
<path d="M35.0205 21.3157C35.2638 19.3397 34.9284 17.2731 33.9306 15.3828C31.3311 10.4585 25.2099 8.56718 20.2859 11.1666C16.4828 13.1741 14.4894 17.2822 14.976 21.3173C11.4569 22.8973 9 26.4346 9 30.5352C9 36.1035 13.5301 40.6336 19.0984 40.6336C21.2999 40.6336 23.3388 39.925 25 38.7245C26.6612 39.925 28.7001 40.6336 30.9016 40.6336C36.4699 40.6336 41 36.1036 41 30.5352C41 26.4332 38.5414 22.8949 35.0205 21.3157ZM21.1611 12.8247C22.3821 12.1801 23.693 11.8747 24.9863 11.8747C27.9403 11.8747 30.8001 13.4692 32.2723 16.2581C33.0196 17.6739 33.3106 19.2109 33.1984 20.7006C32.4603 20.5282 31.6914 20.4369 30.9016 20.4369C28.7 20.4369 26.6611 21.1455 24.9999 22.3461C23.3387 21.1456 21.2999 20.4369 19.0983 20.4369C18.3077 20.4369 17.5382 20.5284 16.7995 20.7011C16.5716 17.5431 18.1865 14.3949 21.1611 12.8247ZM25 24.8149C25.885 25.7276 26.5611 26.8441 26.9494 28.0865C25.6496 28.4036 24.3132 28.3904 23.0521 28.0819C23.4406 26.8413 24.1161 25.7265 25 24.8149ZM21.2913 27.4334C19.8186 26.6915 18.5544 25.5021 17.7277 23.9359C17.4887 23.4832 17.2968 23.0179 17.1493 22.5459C17.7744 22.3934 18.4271 22.3119 19.0984 22.3119C20.7366 22.3119 22.2642 22.7936 23.5476 23.6224C22.5354 24.6985 21.7564 25.9959 21.2913 27.4334ZM26.4525 23.6224C27.7359 22.7935 29.2635 22.3118 30.9016 22.3118C31.5714 22.3118 32.2226 22.3929 32.8463 22.5447C32.2214 24.5481 30.8368 26.3147 28.8389 27.3694C28.7959 27.3921 28.7527 27.4137 28.7094 27.4356C28.2444 25.9972 27.4651 24.699 26.4525 23.6224ZM19.0984 38.7586C14.5639 38.7586 10.875 35.0696 10.875 30.5352C10.875 27.3347 12.713 24.5557 15.3887 23.1975C15.5657 23.7452 15.7917 24.2851 16.0694 24.8112C17.1646 26.8859 18.8853 28.421 20.8778 29.3099C20.8289 29.7117 20.8033 30.1206 20.8033 30.5353C20.8033 33.2074 21.8469 35.6401 23.5475 37.4481C22.2641 38.277 20.7365 38.7586 19.0984 38.7586ZM22.6783 30.5352C22.6783 30.33 22.6861 30.1266 22.7009 29.9251C23.4569 30.1025 24.2341 30.1941 25.0169 30.1941C25.7775 30.1941 26.5432 30.1069 27.2994 29.9302C27.314 30.1301 27.3217 30.3317 27.3217 30.5352C27.3217 32.7564 26.4361 34.7744 25 36.2556C23.5639 34.7744 22.6783 32.7564 22.6783 30.5352ZM30.9016 38.7586C29.2635 38.7586 27.7359 38.2769 26.4525 37.4481C28.1531 35.6401 29.1968 33.2074 29.1968 30.5353C29.1968 30.1224 29.1713 29.7154 29.1229 29.3154C29.3216 29.2263 29.5189 29.1307 29.7142 29.0276H29.7143C32.1371 27.7486 33.825 25.6168 34.6058 23.1948C37.2845 24.552 39.125 27.3326 39.125 30.5352C39.125 35.0696 35.4361 38.7586 30.9016 38.7586Z" fill="white"/>
</svg>
