<svg width="50" height="50" viewBox="0 0 50 50" fill="none" xmlns="http://www.w3.org/2000/svg">
<rect width="50" height="50" rx="5" fill="#1C659F"/>
<path d="M37 20C37.7721 20 38.3333 19.1589 38.3333 18C38.3333 16.8411 37.7721 16 37 16C36.2279 16 35.6667 16.8411 35.6667 18C35.6667 19.1589 36.2279 20 37 20Z" fill="white"/>
<path d="M38.823 23.3334C40.1204 22.3523 41 20.3679 41 18C41 14.6354 39.2435 12 37 12H13C10.7565 12 9 14.6354 9 18C9 20.3678 9.87956 22.3522 11.177 23.3333C9.87956 24.3145 9 26.2989 9 28.6667C9 31.2687 10.0788 33.4894 11.6667 34.3138V38.6686C11.6667 40.138 12.8633 41.3333 14.3334 41.3333H24.3334C24.5104 41.3333 24.6798 41.263 24.8048 41.138L30.1381 35.8047C30.2631 35.6797 30.3334 35.5104 30.3334 35.3333V34.6667H37C39.2435 34.6667 41 32.0312 41 28.6667C41 26.2989 40.1204 24.3145 38.823 23.3334ZM37 13.3334C38.4453 13.3334 39.6667 15.4707 39.6667 18.0001C39.6667 20.5294 38.4453 22.6667 37 22.6667C35.5547 22.6667 34.3333 20.5293 34.3333 18C34.3333 15.4707 35.5547 13.3334 37 13.3334ZM10.3333 18C10.3333 15.4707 11.5547 13.3333 13 13.3333H34.4872C33.5819 14.4244 33 16.0834 33 18C33 19.9166 33.5819 21.5756 34.4872 22.6667H13C11.5547 22.6667 10.3333 20.5293 10.3333 18ZM11.6667 32.6686V32.6808C10.8683 31.8494 10.3333 30.3235 10.3333 28.6667C10.3333 26.1374 11.5547 24 13 24H13.6958C12.8497 25.3998 11.6667 28.157 11.6667 32.6686ZM25 39.0573V37.3334C25 36.5984 25.5977 36.0001 26.3333 36.0001H28.0572L25 39.0573ZM29 32.6667V34.6667H26.3333C24.8633 34.6667 23.6666 35.8626 23.6666 37.3334V40.0001H14.3333C13.5976 40.0001 13 39.4031 13 38.6687V32.6687C13 27.3536 14.7607 24.6986 15.3089 24.0001H30.8019C29.9572 25.293 29 27.8181 29 32.6667ZM30.3333 33.3328V32.6667C30.3333 26.2065 32.1108 24.3529 32.5381 24H34.4872C33.5819 25.0911 33 26.7501 33 28.6667C33 30.5831 33.5819 32.2421 34.4871 33.3331L30.3333 33.3328ZM37 33.3334C35.5547 33.3334 34.3333 31.196 34.3333 28.6667C34.3333 26.1374 35.5547 24 37 24C38.4453 24 39.6667 26.1374 39.6667 28.6667C39.6667 31.196 38.4453 33.3334 37 33.3334Z" fill="white"/>
<path d="M37 26.6667C36.2279 26.6667 35.6667 27.5078 35.6667 28.6667C35.6667 29.8256 36.2279 30.6667 37 30.6667C37.7721 30.6667 38.3333 29.8256 38.3333 28.6667C38.3333 27.5078 37.7721 26.6667 37 26.6667Z" fill="white"/>
</svg>
