<svg width="50" height="50" viewBox="0 0 50 50" fill="none" xmlns="http://www.w3.org/2000/svg">
<rect width="50" height="50" rx="5" fill="#1C659F"/>
<path d="M12.91 13H37.0009C37.5144 13 38.0228 13.1011 38.4972 13.2976C38.9716 13.4941 39.4026 13.7821 39.7657 14.1452C40.1288 14.5083 40.4168 14.9393 40.6133 15.4137C40.8098 15.8881 40.9109 16.3966 40.9109 16.91V22.5191H9V16.91C9 15.873 9.41195 14.8785 10.1452 14.1452C10.8785 13.4119 11.873 13 12.91 13Z" stroke="white" stroke-width="1.2" stroke-miterlimit="10"/>
<path d="M17.3469 22.5117H9V25.6279H17.3469V22.5117Z" stroke="white" stroke-width="1.2" stroke-miterlimit="10"/>
<path d="M12.8802 25.6353H10.8621V37.2912H12.8802V25.6353Z" stroke="white" stroke-width="1.2" stroke-miterlimit="10"/>
<path d="M39.0485 25.6353H37.0304V37.2912H39.0485V25.6353Z" stroke="white" stroke-width="1.2" stroke-miterlimit="10"/>
<path d="M15.7812 35.2064C15.3344 35.1814 14.9155 34.9812 14.6154 34.6492C14.3154 34.3172 14.1584 33.8802 14.1786 33.4331V32.2163H29.3662V33.4331C29.346 33.8802 29.5029 34.3172 29.803 34.6492C30.103 34.9812 30.522 35.1814 30.9688 35.2064C31.415 35.1814 31.8332 34.9809 32.1321 34.6487C32.431 34.3165 32.5862 33.8794 32.564 33.4331V22.5117" stroke="white" stroke-width="1.2" stroke-miterlimit="10"/>
<path d="M17.3838 22.5117V32.2163" stroke="white" stroke-width="1.2" stroke-miterlimit="10"/>
<path d="M40.9107 22.5117H32.5639V25.6279H40.9107V22.5117Z" stroke="white" stroke-width="1.2" stroke-miterlimit="10"/>
<path d="M36.3404 15.8047H34.0107C33.2116 15.8047 32.5639 16.4508 32.5639 17.2478C32.5639 18.0448 33.2116 18.6908 34.0107 18.6908H36.3404C37.1394 18.6908 37.7872 18.0448 37.7872 17.2478C37.7872 16.4508 37.1394 15.8047 36.3404 15.8047Z" stroke="white" stroke-width="1.2" stroke-miterlimit="10"/>
<path d="M13.3776 18.6907C14.1766 18.6907 14.8244 18.043 14.8244 17.2439C14.8244 16.4449 14.1766 15.7972 13.3776 15.7972C12.5786 15.7972 11.9308 16.4449 11.9308 17.2439C11.9308 18.043 12.5786 18.6907 13.3776 18.6907Z" stroke="white" stroke-width="1.2" stroke-miterlimit="10"/>
<path d="M18.994 18.6907C19.793 18.6907 20.4408 18.043 20.4408 17.2439C20.4408 16.4449 19.793 15.7972 18.994 15.7972C18.195 15.7972 17.5472 16.4449 17.5472 17.2439C17.5472 18.043 18.195 18.6907 18.994 18.6907Z" stroke="white" stroke-width="1.2" stroke-miterlimit="10"/>
<path d="M15.7815 35.2062H30.969" stroke="white" stroke-width="1.2" stroke-miterlimit="10"/>
<path d="M9 37.2913H14.8242" stroke="white" stroke-width="1.2" stroke-miterlimit="10"/>
<path d="M35.1832 37.2913H41" stroke="white" stroke-width="1.2" stroke-miterlimit="10"/>
</svg>
