<svg width="30" height="30" viewBox="0 0 30 30" fill="none" xmlns="http://www.w3.org/2000/svg">
<circle cx="15" cy="15" r="15" fill="#1C659F"/>
<path d="M23.1766 9.88391C22.6429 10.1136 22.0818 10.2736 21.5071 10.3598C21.7758 10.3137 22.1711 9.83017 22.3284 9.63444C22.5675 9.3392 22.7497 9.00215 22.8657 8.64043C22.8657 8.61356 22.8926 8.57519 22.8657 8.556C22.8522 8.54861 22.837 8.54473 22.8216 8.54473C22.8062 8.54473 22.791 8.54861 22.7775 8.556C22.1535 8.89389 21.4894 9.15178 20.801 9.32357C20.777 9.3309 20.7514 9.33156 20.7271 9.32548C20.7027 9.31939 20.6805 9.30679 20.6628 9.28903C20.6092 9.22522 20.5515 9.16497 20.4901 9.10865C20.2093 8.85706 19.8907 8.65114 19.546 8.49843C19.0806 8.30752 18.578 8.22485 18.0761 8.25664C17.589 8.2874 17.1135 8.41804 16.6791 8.64043C16.2513 8.87489 15.8753 9.19342 15.5738 9.57687C15.2565 9.97154 15.0275 10.4296 14.9021 10.9201C14.7987 11.3868 14.787 11.869 14.8676 12.3402C14.8676 12.4208 14.8676 12.4323 14.7985 12.4208C12.0621 12.0178 9.81692 11.0468 7.98241 8.96281C7.90182 8.8707 7.8596 8.8707 7.79436 8.96281C6.99608 10.1756 7.3837 12.0945 8.38155 13.0425C8.51588 13.1691 8.65404 13.292 8.79988 13.4071C8.34237 13.3746 7.89604 13.2506 7.48733 13.0425C7.41057 12.9926 7.36835 13.0195 7.36451 13.1116C7.35363 13.2393 7.35363 13.3677 7.36451 13.4954C7.44459 14.1073 7.68577 14.6871 8.06339 15.1753C8.44101 15.6635 8.94152 16.0427 9.51373 16.274C9.65322 16.3337 9.79857 16.3788 9.94741 16.4083C9.52387 16.4917 9.08948 16.5047 8.66172 16.4467C8.56961 16.4275 8.53507 16.4774 8.56961 16.5657C9.13378 18.1008 10.3581 18.569 11.2561 18.83C11.3789 18.8492 11.5018 18.8492 11.6399 18.8799C11.6399 18.8799 11.6399 18.8799 11.6169 18.9029C11.3521 19.3865 10.2813 19.7127 9.79006 19.8816C8.8934 20.2037 7.9374 20.3268 6.9884 20.2424C6.83872 20.2193 6.80418 20.2232 6.7658 20.2424C6.72742 20.2616 6.7658 20.3038 6.80802 20.3422C6.99991 20.4688 7.19181 20.5801 7.39138 20.6876C7.9855 21.0116 8.61361 21.269 9.26427 21.4551C12.6339 22.3839 16.4258 21.7008 18.9549 19.1869C20.943 17.2143 21.6415 14.4932 21.6415 11.7683C21.6415 11.6647 21.7681 11.6033 21.841 11.5495C22.344 11.1577 22.7874 10.6948 23.1574 10.1756C23.2215 10.0982 23.2544 9.99963 23.2495 9.89926C23.2495 9.84169 23.2495 9.8532 23.1766 9.88391Z" fill="white"/>
</svg>
