<svg width="30" height="30" viewBox="0 0 30 30" fill="none" xmlns="http://www.w3.org/2000/svg">
<circle cx="15" cy="15" r="15" fill="#1C659F"/>
<path fill-rule="evenodd" clip-rule="evenodd" d="M21.4467 9.34474C22.1581 9.53684 22.7172 10.0974 22.9061 10.8079C23.25 12.0974 23.25 14.7895 23.25 14.7895C23.25 14.7895 23.25 17.4816 22.9061 18.7711C22.7145 19.4842 22.1554 20.0447 21.4467 20.2342C20.1605 20.5789 15 20.5789 15 20.5789C15 20.5789 9.84211 20.5789 8.55329 20.2342C7.84195 20.0421 7.28285 19.4816 7.09386 18.7711C6.75 17.4816 6.75 14.7895 6.75 14.7895C6.75 14.7895 6.75 12.0974 7.09386 10.8079C7.28548 10.0947 7.84458 9.53421 8.55329 9.34474C9.84211 9 15 9 15 9C15 9 20.1605 9 21.4467 9.34474ZM17.638 14.7895L13.3516 17.2711V12.3079L17.638 14.7895Z" fill="white"/>
</svg>
