<svg width="309" height="114" viewBox="0 0 309 114" fill="none" xmlns="http://www.w3.org/2000/svg">
<path d="M0.919922 101.95H2.99992L4.94992 110.42H4.98992L7.23992 101.95H9.05992L11.3099 110.42H11.3499L13.2999 101.95H15.3799L12.3799 113.17H10.4399L8.17992 105.11H8.12992L5.86992 113.17H3.92992L0.919922 101.95Z" fill="black"/>
<path d="M21.3199 101.95H28.5799V103.64H23.3199V106.67H28.2899V108.29H23.3199V111.49H28.5799V113.18H21.3199V101.96V101.95Z" fill="black"/>
<path d="M34.9399 101.95H36.9499V113.17H34.9399V101.95ZM35.9399 111.62H39.1799C39.9199 111.62 40.4799 111.47 40.8599 111.17C41.2399 110.87 41.4399 110.44 41.4399 109.87V109.85C41.4399 109.47 41.3499 109.15 41.1699 108.89C40.9899 108.63 40.7299 108.44 40.3799 108.31C40.0299 108.18 39.5999 108.12 39.0899 108.12H35.9299V106.67H38.7699C39.4699 106.67 40.0099 106.53 40.3899 106.25C40.7699 105.97 40.9599 105.57 40.9599 105.05V105.03C40.9599 104.54 40.7999 104.17 40.4699 103.91C40.1399 103.65 39.6799 103.52 39.0899 103.52H35.9399V101.96H39.5899C40.2699 101.96 40.8599 102.08 41.3599 102.31C41.8599 102.54 42.2499 102.86 42.5299 103.28C42.8099 103.7 42.9399 104.19 42.9399 104.76V104.78C42.9399 105.18 42.8499 105.55 42.6599 105.9C42.4699 106.25 42.2199 106.54 41.9099 106.77C41.5999 107 41.2299 107.15 40.8299 107.21V107.26C41.3499 107.31 41.8199 107.45 42.2099 107.7C42.5999 107.95 42.9199 108.26 43.1399 108.66C43.3599 109.06 43.4699 109.5 43.4699 109.99V110.01C43.4699 110.67 43.3099 111.23 42.9999 111.71C42.6899 112.19 42.2499 112.55 41.6699 112.81C41.0899 113.07 40.4099 113.2 39.6099 113.2H35.9099V111.64L35.9399 111.62Z" fill="black"/>
<path d="M57.3599 101.95H59.3699V113.17H57.3599V101.95Z" fill="black"/>
<path d="M65.96 101.95H67.76L74.32 111.39L72.42 109.82H73.27V101.95H75.26V113.17H73.47L66.9 103.71L68.8 105.27H67.94V113.17H65.95V101.95H65.96Z" fill="black"/>
<path d="M84.6199 103.64H81.2599V101.95H89.9699V103.64H86.6199V113.17H84.6199V103.64Z" fill="black"/>
<path d="M95.95 101.95H103.21V103.64H97.95V106.67H102.92V108.29H97.95V111.49H103.21V113.18H95.95V101.96V101.95Z" fill="black"/>
<path d="M109.58 101.95H111.59V111.48H116.68V113.17H109.59V101.95H109.58Z" fill="black"/>
<path d="M122.74 101.95H124.75V111.48H129.84V113.17H122.75V101.95H122.74Z" fill="black"/>
<path d="M135.89 101.95H137.9V113.17H135.89V101.95Z" fill="black"/>
<path d="M146.6 112.66C145.8 112.19 145.19 111.52 144.76 110.64C144.33 109.76 144.11 108.73 144.11 107.52C144.11 106.32 144.33 105.29 144.76 104.44C145.19 103.59 145.8 102.92 146.59 102.46C147.38 102 148.31 101.76 149.39 101.76C150.28 101.76 151.05 101.92 151.72 102.23C152.39 102.54 152.93 102.97 153.36 103.51C153.79 104.05 154.06 104.67 154.2 105.36L154.23 105.49H152.2L152.17 105.4C151.96 104.8 151.61 104.33 151.14 103.99C150.67 103.65 150.08 103.48 149.39 103.48C148.7 103.48 148.14 103.64 147.66 103.95C147.18 104.26 146.81 104.72 146.55 105.32C146.29 105.92 146.16 106.64 146.16 107.48C146.16 108.34 146.29 109.08 146.56 109.7C146.83 110.32 147.21 110.79 147.7 111.12C148.19 111.45 148.78 111.61 149.45 111.61C150.02 111.61 150.51 111.5 150.95 111.28C151.39 111.06 151.72 110.76 151.97 110.36C152.22 109.96 152.34 109.51 152.35 108.98V108.81H149.65V107.25H154.32V108.46C154.32 109.48 154.13 110.35 153.74 111.07C153.35 111.79 152.79 112.35 152.06 112.75C151.33 113.15 150.45 113.34 149.43 113.34C148.34 113.34 147.4 113.1 146.6 112.63V112.66Z" fill="black"/>
<path d="M160.57 101.95H167.83V103.64H162.57V106.67H167.54V108.29H162.57V111.49H167.83V113.18H160.57V101.96V101.95Z" fill="black"/>
<path d="M174.19 101.95H175.99L182.55 111.39L180.65 109.82H181.5V101.95H183.49V113.17H181.7L175.13 103.71L177.03 105.27H176.17V113.17H174.18V101.95H174.19Z" fill="black"/>
<path d="M192.19 112.66C191.4 112.19 190.79 111.52 190.36 110.65C189.93 109.78 189.72 108.75 189.72 107.56C189.72 106.36 189.94 105.33 190.37 104.46C190.8 103.59 191.41 102.93 192.2 102.46C192.99 101.99 193.92 101.76 194.99 101.76C195.85 101.76 196.62 101.93 197.3 102.26C197.98 102.59 198.54 103.05 198.97 103.64C199.4 104.23 199.66 104.9 199.76 105.66V105.74H197.8L197.76 105.59C197.65 105.16 197.47 104.79 197.22 104.48C196.97 104.17 196.66 103.93 196.28 103.76C195.9 103.59 195.47 103.5 194.98 103.5C194.33 103.5 193.76 103.67 193.28 104C192.8 104.33 192.42 104.8 192.16 105.4C191.9 106 191.76 106.72 191.76 107.56C191.76 108.4 191.89 109.12 192.16 109.73C192.43 110.34 192.8 110.81 193.28 111.15C193.76 111.49 194.33 111.65 194.98 111.65C195.46 111.65 195.88 111.57 196.26 111.4C196.64 111.23 196.95 110.99 197.21 110.67C197.47 110.35 197.66 109.96 197.78 109.5L197.8 109.42H199.77L199.75 109.51C199.66 110.27 199.39 110.95 198.96 111.53C198.53 112.11 197.97 112.57 197.29 112.9C196.61 113.23 195.83 113.39 194.97 113.39C193.9 113.39 192.96 113.15 192.17 112.68L192.19 112.66Z" fill="black"/>
<path d="M205.91 101.95H213.17V103.64H207.91V106.67H212.88V108.29H207.91V111.49H213.17V113.18H205.91V101.96V101.95Z" fill="black"/>
<path d="M185.21 30.88C178.47 30.88 172.29 33.29 167.47 37.29V0H157.38V58.71C157.38 74.05 169.86 86.54 185.21 86.54C200.56 86.54 213.04 74.06 213.04 58.71C213.04 43.36 200.56 30.88 185.21 30.88ZM185.21 76.45C175.43 76.45 167.47 68.49 167.47 58.71C167.47 48.93 175.43 40.97 185.21 40.97C194.99 40.97 202.95 48.93 202.95 58.71C202.95 68.49 194.99 76.45 185.21 76.45Z" fill="black"/>
<path d="M185.21 52.05C181.54 52.05 178.56 55.03 178.56 58.7C178.56 62.37 181.54 65.35 185.21 65.35C188.88 65.35 191.86 62.37 191.86 58.7C191.86 55.03 188.88 52.05 185.21 52.05Z" fill="black"/>
<path d="M70.1 64.34C70.1 71.24 64.49 76.85 57.59 76.85C51.12 76.85 45.79 71.92 45.15 65.62C45.17 65.2 45.19 64.77 45.19 64.34V30.84H45.09V30.41H35V64.35C35 64.78 35.01 65.21 35.04 65.63C34.4 71.93 29.06 76.86 22.6 76.86C15.7 76.86 10.09 71.25 10.09 64.35V30.4H0V64.34C0 76.8 10.14 86.94 22.6 86.94C29.65 86.94 35.95 83.69 40.1 78.62C44.25 83.69 50.55 86.94 57.6 86.94C70.06 86.94 80.19 76.8 80.19 64.34V30.4H70.1V64.34Z" fill="black"/>
<path d="M90.16 58.36C90.16 73.72 102.65 86.21 118.01 86.21H145.78V76.12H118.01C108.22 76.12 100.25 68.15 100.25 58.36C100.25 48.57 108.22 40.6 118.01 40.6H145.78V30.51H118.01C102.65 30.51 90.16 43 90.16 58.36Z" fill="black"/>
<path d="M123.09 53.56H117.14C114.35 53.56 112.1 55.82 112.1 58.6C112.1 61.38 114.36 63.64 117.14 63.64H145.78V53.55H123.1L123.09 53.56Z" fill="black"/>
<path d="M295.94 17.59H238.84C232.09 17.59 226.62 23.06 226.62 29.81V113.13L239.49 99.13H295.94C302.69 99.13 308.16 93.66 308.16 86.91V29.81C308.16 23.06 302.69 17.59 295.94 17.59ZM267.39 30.81C270.22 30.81 272.51 33.1 272.51 35.93C272.51 38.76 270.22 41.05 267.39 41.05C264.56 41.05 262.27 38.76 262.27 35.93C262.27 33.1 264.56 30.81 267.39 30.81ZM272.86 51.45V65.31C272.86 68.1 270.6 70.35 267.82 70.35C265.04 70.35 262.78 68.09 262.78 65.31V51.45C262.78 48.66 265.04 46.41 267.82 46.41C270.6 46.41 272.86 48.67 272.86 51.45ZM267.39 86.25C251.92 86.25 239.34 73.67 239.34 58.2C239.34 53.75 240.35 49.49 242.35 45.55C243.01 44.24 244.61 43.72 245.92 44.38C247.23 45.04 247.75 46.64 247.09 47.95C245.47 51.14 244.65 54.6 244.65 58.21C244.65 70.75 254.85 80.95 267.39 80.95C279.93 80.95 290.13 70.75 290.13 58.21C290.13 54.39 289.16 50.6 287.33 47.28C286.62 46 287.09 44.38 288.38 43.68C289.66 42.97 291.28 43.44 291.98 44.73C294.24 48.84 295.43 53.5 295.43 58.22C295.43 73.69 282.85 86.27 267.38 86.27L267.39 86.25Z" fill="black"/>
</svg>
